<?xml version="1.0" encoding="UTF-8"?>
<svg id="_图层_2" data-name="图层 2" xmlns="http://www.w3.org/2000/svg" viewBox="0 0 177.36 271.6">
  <defs>
    <style>
      .cls-1 {
        fill: #fff;
      }

      .cls-2 {
        fill: #b2a9fb;
      }

      .cls-3 {
        fill: #9f98fb;
      }
    </style>
  </defs>
  <g id="_图层_3" data-name="图层 3">
    <g>
      <path class="cls-2" d="M174.35,136.54c-1.47-3.29-3.42-6.26-5.73-8.87-.63-7.81-7.16-13.95-15.13-13.95-2.99,0-5.77.88-8.12,2.37-.91-.07-1.83-.12-2.76-.12-4.88,0-9.61,1.01-14.08,3l-55.51,24.74c-2.16-1.18-4.64-1.85-7.27-1.85-7.18,0-13.17,4.98-14.76,11.67l-.43.19.07.17-9.14,4.08c-2.19.98-4.49,1.44-6.75,1.44-6.4,0-12.54-3.7-15.3-9.89-3.74-8.39.07-18.31,8.45-22.05l4.49-2c2.49,1.79,5.54,2.86,8.84,2.86,7.83,0,14.26-5.92,15.1-13.52l19.91-8.87v.02s44.18-19.68,44.18-19.68c2.52,1.86,5.62,2.97,8.99,2.97,7.89,0,14.37-6.02,15.12-13.71l11.63-5.18c17.48-7.79,25.36-28.34,17.57-45.82-3.98-8.94-11.51-15.6-20.48-18.67-2.78-3.55-7.1-5.85-11.96-5.85-5.2,0-9.78,2.61-12.52,6.6-.28.12-.57.23-.85.35l-35.35,15.75,6.82,16.67,30.87-13.76c2.77,2.93,6.68,4.77,11.03,4.77s8.31-1.86,11.09-4.83c2.06,1.62,3.78,3.74,4.92,6.29,3.74,8.39-.07,18.31-8.45,22.05l-13.67,6.09c-1.78-.73-3.72-1.14-5.75-1.14-6.59,0-12.18,4.2-14.29,10.07l-14.62,6.52v-.02s-53.29,23.75-53.29,23.75c-1.83-.78-3.85-1.22-5.97-1.22-6.67,0-12.32,4.3-14.36,10.28l-6.29,2.8c-17.48,7.79-25.36,28.34-17.57,45.82,5.57,12.49,18.03,20.57,31.74,20.57,4.88,0,9.61-1.01,14.08-3l9.39-4.19c2.22,1.28,4.8,2.02,7.54,2.02,7.29,0,13.38-5.14,14.85-12l46.18-20.58-.07-.18,9.14-4.08c1.13-.5,2.28-.86,3.44-1.1,2.18,5.72,7.7,9.8,14.19,9.8,1.47,0,2.89-.22,4.24-.61.06.12.13.24.18.37,3.74,8.39-.07,18.31-8.45,22.05l-8.8,3.92-.1-.24-7.9,3.52c-2.26-1.34-4.9-2.13-7.72-2.13-7.37,0-13.51,5.25-14.89,12.2l-49.39,22.01c-.53.24-1.06.49-1.57.75-1.65-.62-3.44-.97-5.31-.97-8.39,0-15.19,6.8-15.19,15.19,0,3.11.94,5.99,2.54,8.4-1.8,7.25-1.3,15.12,1.97,22.45,5.57,12.49,18.03,20.57,31.74,20.57,4.88,0,9.61-1.01,14.08-3l18.61-8.3c2.5,1.81,5.57,2.89,8.89,2.89,8.39,0,15.19-6.8,15.19-15.19s-6.8-15.19-15.19-15.19c-6.64,0-12.27,4.27-14.34,10.21l-20.5,9.13c-2.19.98-4.49,1.44-6.75,1.44-6.4,0-12.54-3.7-15.3-9.89-1.3-2.93-1.67-6.03-1.27-9.01,5.87-1.81,10.21-7.1,10.65-13.46l7.87-3.51.1.24,41.07-18.3c2.09,1.09,4.47,1.71,6.99,1.71,7.07,0,12.99-4.84,14.69-11.38l17.15-7.65c17.48-7.79,25.36-28.34,17.57-45.82Z"/>
      <path class="cls-2" d="M111.15,37.87c.35-3.13-1.91-5.95-5.04-6.3-.14-.02-.28-.02-.41-.02.13-.05.26-.09.39-.15,2.88-1.26,4.2-4.63,2.93-7.51-1.26-2.88-4.63-4.2-7.51-2.93-.13.06-.25.12-.37.19.09-.1.18-.21.26-.32,1.87-2.54,1.32-6.11-1.21-7.97-2.54-1.87-6.11-1.32-7.97,1.21-.08.11-.16.23-.23.35.03-.14.05-.27.07-.41.35-3.13-1.91-5.95-5.04-6.3s-5.95,1.91-6.3,5.04c-.02.14-.02.28-.02.41-.05-.13-.09-.26-.15-.39-1.26-2.88-4.63-4.2-7.51-2.93-2.88,1.26-4.2,4.63-2.93,7.51.06.13.12.25.19.37-.1-.09-.21-.18-.32-.26-2.54-1.87-6.11-1.32-7.97,1.21-1.87,2.54-1.32,6.11,1.21,7.97.11.08.23.16.35.23-.14-.02-.27-.05-.41-.07-3.13-.35-5.95,1.91-6.3,5.04-.35,3.13,1.91,5.95,5.04,6.3.14.02.28.02.41.02-.13.05-.26.09-.39.15-2.88,1.26-4.2,4.63-2.93,7.51,1.26,2.88,4.63,4.2,7.51,2.93.13-.06.25-.12.37-.19-.09.1-.18.21-.26.32-1.87,2.54-1.32,6.11,1.21,7.97,2.54,1.87,6.11,1.32,7.97-1.21.08-.11.16-.23.23-.35-.03.14-.05.27-.07.41-.35,3.13,1.91,5.95,5.04,6.3s5.95-1.91,6.3-5.04c.02-.14.02-.28.02-.41.05.13.09.26.15.39,1.26,2.88,4.63,4.2,7.51,2.93,2.88-1.26,4.2-4.63,2.93-7.51-.06-.13-.12-.25-.19-.37.1.09.21.18.32.26,2.54,1.87,6.11,1.32,7.97-1.21,1.87-2.54,1.32-6.11-1.21-7.97-.11-.08-.23-.16-.35-.23.14.02.27.05.41.07,3.13.35,5.95-1.91,6.3-5.04Z"/>
      <circle class="cls-3" cx="140.89" cy="15.57" r="11.87"/>
      <path class="cls-1" d="M145.37,22h-8.96c-.49,0-.9-.4-.9-.9v-7.61c0-.49.4-.9.9-.9h1.34v-1.79c0-1.73,1.4-3.14,3.14-3.14s3.14,1.4,3.14,3.14v1.79h1.34c.49,0,.9.4.9.9v7.61c0,.49-.4.9-.9.9ZM140.44,17.43v1.87h.9v-1.87c.52-.19.9-.68.9-1.26,0-.74-.6-1.34-1.34-1.34s-1.34.6-1.34,1.34c0,.58.38,1.08.9,1.26ZM142.68,10.8c0-.99-.8-1.79-1.79-1.79s-1.79.8-1.79,1.79v1.79h3.58v-1.79h0Z"/>
      <circle class="cls-3" cx="129.44" cy="74.48" r="11.87"/>
      <path class="cls-1" d="M133.92,80.9h-8.96c-.49,0-.9-.4-.9-.9v-7.61c0-.49.4-.9.9-.9h1.34v-1.79c0-1.73,1.4-3.14,3.14-3.14s3.14,1.4,3.14,3.14v1.79h1.34c.49,0,.9.4.9.9v7.61c0,.49-.4.9-.9.9ZM129,76.34v1.87h.9v-1.87c.52-.19.9-.68.9-1.26,0-.74-.6-1.34-1.34-1.34s-1.34.6-1.34,1.34c0,.58.38,1.08.9,1.26ZM131.24,69.7c0-.99-.8-1.79-1.79-1.79s-1.79.8-1.79,1.79v1.79h3.58v-1.79h0Z"/>
      <circle class="cls-3" cx="41.1" cy="113.12" r="11.87"/>
      <path class="cls-1" d="M45.58,119.54h-8.96c-.49,0-.9-.4-.9-.9v-7.61c0-.49.4-.9.9-.9h1.34v-1.79c0-1.73,1.4-3.14,3.14-3.14s3.14,1.4,3.14,3.14v1.79h1.34c.49,0,.9.4.9.9v7.61c0,.49-.4.9-.9.9ZM40.66,114.98v1.87h.9v-1.87c.52-.19.9-.68.9-1.26,0-.74-.6-1.34-1.34-1.34s-1.34.6-1.34,1.34c0,.58.38,1.08.9,1.26ZM42.9,108.34c0-.99-.8-1.79-1.79-1.79s-1.79.8-1.79,1.79v1.79h3.58v-1.79h0Z"/>
      <circle class="cls-3" cx="65.78" cy="157.05" r="11.87"/>
      <path class="cls-1" d="M70.26,163.47h-8.96c-.49,0-.9-.4-.9-.9v-7.61c0-.49.4-.9.9-.9h1.34v-1.79c0-1.73,1.4-3.14,3.14-3.14s3.14,1.4,3.14,3.14v1.79h1.34c.49,0,.9.4.9.9v7.61c0,.49-.4.9-.9.9ZM65.34,158.91v1.87h.9v-1.87c.52-.19.9-.68.9-1.26,0-.74-.6-1.34-1.34-1.34s-1.34.6-1.34,1.34c0,.58.38,1.08.9,1.26ZM67.58,152.28c0-.99-.8-1.79-1.79-1.79s-1.79.8-1.79,1.79v1.79h3.58v-1.79h0Z"/>
      <circle class="cls-3" cx="125.02" cy="186.25" r="11.87"/>
      <path class="cls-1" d="M129.5,192.67h-8.96c-.49,0-.9-.4-.9-.9v-7.61c0-.49.4-.9.9-.9h1.34v-1.79c0-1.73,1.4-3.14,3.14-3.14s3.14,1.4,3.14,3.14v1.79h1.34c.49,0,.9.4.9.9v7.61c0,.49-.4.9-.9.9ZM124.57,188.11v1.87h.9v-1.87c.52-.19.9-.68.9-1.26,0-.74-.6-1.34-1.34-1.34s-1.34.6-1.34,1.34c0,.58.38,1.08.9,1.26ZM126.81,181.48c0-.99-.8-1.79-1.79-1.79s-1.79.8-1.79,1.79v1.79h3.58v-1.79h0Z"/>
      <circle class="cls-3" cx="153.7" cy="128.72" r="11.87"/>
      <path class="cls-1" d="M158.18,135.14h-8.96c-.49,0-.9-.4-.9-.9v-7.61c0-.49.4-.9.9-.9h1.34v-1.79c0-1.73,1.4-3.14,3.14-3.14s3.14,1.4,3.14,3.14v1.79h1.34c.49,0,.9.4.9.9v7.61c0,.49-.4.9-.9.9ZM153.25,130.58v1.87h.9v-1.87c.52-.19.9-.68.9-1.26,0-.74-.6-1.34-1.34-1.34s-1.34.6-1.34,1.34c0,.58.38,1.08.9,1.26ZM155.49,123.95c0-.99-.8-1.79-1.79-1.79s-1.79.8-1.79,1.79v1.79h3.58v-1.79h0Z"/>
      <circle class="cls-3" cx="53.91" cy="220.13" r="11.87"/>
      <path class="cls-1" d="M58.39,226.55h-8.96c-.49,0-.9-.4-.9-.9v-7.61c0-.49.4-.9.9-.9h1.34v-1.79c0-1.73,1.4-3.14,3.14-3.14s3.14,1.4,3.14,3.14v1.79h1.34c.49,0,.9.4.9.9v7.61c0,.49-.4.9-.9.9ZM53.46,221.99v1.87h.9v-1.87c.52-.19.9-.68.9-1.26,0-.74-.6-1.34-1.34-1.34s-1.34.6-1.34,1.34c0,.58.38,1.08.9,1.26ZM55.7,215.35c0-.99-.8-1.79-1.79-1.79s-1.79.8-1.79,1.79v1.79h3.58v-1.79h0Z"/>
      <circle class="cls-3" cx="116.38" cy="248.05" r="11.87"/>
      <rect class="cls-1" x="115.06" y="243.19" width="2.64" height="9.72"/>
    </g>
  </g>
</svg>