<?xml version="1.0" encoding="UTF-8"?>
<svg id="_图层_2" data-name="图层 2" xmlns="http://www.w3.org/2000/svg" xmlns:xlink="http://www.w3.org/1999/xlink" viewBox="0 0 206.08 448.36">
  <defs>
    <style>
      .cls-1 {
        fill: none;
      }

      .cls-2 {
        fill: #9fa0a0;
      }

      .cls-3 {
        fill: #fff;
      }

      .cls-4 {
        opacity: .6;
      }

      .cls-5 {
        clip-path: url(#clippath);
      }
    </style>
    <clipPath id="clippath">
      <path class="cls-1" d="M176.92,0H29.16C13.09,0,0,13.08,0,29.16v390.04c0,16.08,13.09,29.16,29.16,29.16h147.76c16.08,0,29.16-13.08,29.16-29.16V29.16c0-16.08-13.08-29.16-29.16-29.16Z"/>
    </clipPath>
  </defs>
  <g id="_图层_3" data-name="图层 3">
    <g class="cls-4">
      <g class="cls-5">
        <g>
          <g>
            <polygon class="cls-3" points="17.21 90.26 39.81 73.3 39.81 66.08 43.89 63.04 48.17 62.42 53.05 64.51 54.1 70.47 57.9 72.04 60.31 75.23 60.83 79.35 58.63 83.55 53.05 84.69 47.75 83.13 24.85 100.63 25.06 106.98 21.34 110.38 17.21 111.69 12.5 108.44 11.25 103.32 8.32 102.06 4.66 98 4.66 92.54 8 88.93 12.5 88.47 17.21 90.26"/>
            <path class="cls-2" d="M47.61,63.1c.14.02.27.04.41.07,2.78.57,5.07,3.49,4.99,6.35-.01.49-.08.97-.2,1.42-.06.23.1.46.33.49.02,0,.05,0,.07,0,.38-.02.77,0,1.16.05.19.03.38.06.57.11,3.01.71,5.07,3.58,4.81,6.69-.31,3.65-3.58,6.25-7.13,5.75-1.58-.22-2.95-1.02-3.91-2.16-.1-.12-.23-.19-.37-.21s-.3.01-.42.11l-24.27,18.3c-.24.18-.29.51-.13.76.74,1.2,1.08,2.65.87,4.16-.48,3.41-3.6,5.79-6.97,5.32-.13-.02-.27-.04-.4-.07-2.9-.6-4.99-3.26-4.9-6.25.02-.52.09-1.03.22-1.5.05-.18-.07-.36-.25-.39-.02,0-.04,0-.06,0-.41.03-.83.01-1.25-.04-3.52-.49-5.92-3.89-5.17-7.46.63-3.03,3.44-5.15,6.49-4.93.14.01.27.02.41.04,1.49.21,2.78.94,3.72,1.98.1.11.22.17.36.19.15.02.3-.01.42-.11l24.27-18.31c.24-.18.29-.51.14-.76-.74-1.21-1.08-2.68-.87-4.21.48-3.47,3.66-5.89,7.09-5.41M47.89,61.07h0c-2.2-.31-4.4.27-6.17,1.62-1.77,1.35-2.92,3.31-3.22,5.53-.21,1.48-.01,2.99.55,4.36l-22.31,16.81c-1.14-.91-2.51-1.5-3.96-1.71-.18-.02-.36-.04-.54-.06-4.08-.3-7.8,2.52-8.64,6.55-.47,2.26,0,4.63,1.33,6.5,1.22,1.74,3.08,2.94,5.14,3.34-.04,1.9.59,3.76,1.77,5.27,1.2,1.53,2.89,2.58,4.77,2.97.18.04.36.07.53.09,4.49.63,8.65-2.54,9.29-7.07.21-1.47.01-2.97-.55-4.32l22.26-16.77c1.19,1.01,2.64,1.66,4.2,1.88,2.27.32,4.51-.3,6.32-1.73,1.82-1.45,2.93-3.54,3.13-5.87.35-4.11-2.39-7.92-6.38-8.86-.12-.03-.23-.05-.35-.07.09-3.85-2.87-7.59-6.62-8.37-.18-.04-.36-.07-.54-.09h0Z"/>
            <path class="cls-2" d="M54.25,93.86c.58.08.98.61.9,1.19s-.61.98-1.19.9-.98-.61-.9-1.19.61-.98,1.19-.9M54.53,91.85c-1.69-.24-3.25.95-3.49,2.63s.95,3.25,2.63,3.49,3.25-.95,3.49-2.63-.95-3.25-2.63-3.49h0Z"/>
            <path class="cls-2" d="M37.67,114.86c-.27-.04-.52-.18-.69-.42l-2.46-3.45c-.33-.46-.22-1.1.24-1.43.46-.33,1.1-.22,1.43.24l2.46,3.45c.33.46.22,1.1-.24,1.43-.22.16-.49.21-.74.18Z"/>
            <path class="cls-2" d="M34.7,114.42c-.27-.04-.52-.18-.69-.42-.33-.46-.22-1.1.24-1.43l3.45-2.46c.46-.33,1.1-.22,1.43.24s.22,1.1-.24,1.43l-3.45,2.46c-.22.16-.49.21-.74.18Z"/>
            <path class="cls-2" d="M24.77,63.93c-.27-.04-.52-.18-.69-.42l-2.46-3.45c-.33-.46-.22-1.1.24-1.43.46-.33,1.1-.22,1.43.24l2.46,3.45c.33.46.22,1.1-.24,1.43-.22.16-.49.21-.74.18Z"/>
            <path class="cls-2" d="M21.81,63.5c-.27-.04-.52-.18-.69-.42-.33-.46-.22-1.1.24-1.43l3.45-2.46c.46-.33,1.1-.22,1.43.24.33.46.22,1.1-.24,1.43l-3.45,2.46c-.22.16-.49.21-.74.18Z"/>
            <path class="cls-2" d="M41.15,100.62c-.26-.04-.51-.18-.68-.41l-2.96-4c-.34-.45-.24-1.1.21-1.43.45-.34,1.1-.24,1.43.21l2.96,4c.34.45.24,1.1-.21,1.43-.22.17-.49.23-.75.19Z"/>
            <path class="cls-2" d="M34.54,101.31c-.56-.08-.95-.6-.87-1.16l.45-3.21c.08-.56.6-.95,1.16-.87s.95.6.87,1.16l-.45,3.21c-.08.56-.6.95-1.16.87Z"/>
            <path class="cls-2" d="M43.81,94.5l-3.21-.45c-.56-.08-.95-.6-.87-1.16s.6-.95,1.16-.87l3.21.45c.56.08.95.6.87,1.16s-.6.95-1.16.87Z"/>
            <path class="cls-2" d="M25.22,79.34c-.26-.04-.51-.18-.68-.41l-2.96-4c-.34-.45-.24-1.1.21-1.43.46-.34,1.1-.24,1.43.21l2.96,4c.34.45.24,1.1-.21,1.43-.22.17-.49.23-.75.19Z"/>
            <path class="cls-2" d="M28.42,77.85c-.56-.08-.95-.6-.87-1.16l.45-3.21c.08-.56.6-.95,1.16-.87s.95.6.87,1.16l-.45,3.21c-.08.56-.6.95-1.16.87Z"/>
            <path class="cls-2" d="M22.8,81.9l-3.21-.45c-.56-.08-.95-.6-.87-1.16s.6-.95,1.16-.87l3.21.45c.56.08.95.6.87,1.16s-.6.95-1.16.87Z"/>
            <path class="cls-2" d="M31.27,80.91c4.38-.09,8.68,1.52,11.89,4.5.97.9,2.42-.55,1.45-1.45-3.6-3.34-8.42-5.21-13.34-5.1-1.32.03-1.32,2.08,0,2.05h0Z"/>
            <path class="cls-2" d="M23.89,86.48c4.38-.09,8.68,1.52,11.89,4.5.97.9,2.42-.55,1.45-1.45-3.6-3.34-8.42-5.21-13.34-5.1-1.32.03-1.32,2.08,0,2.05h0Z"/>
            <path class="cls-2" d="M28.47,87.35c.87,2.89,1.23,5.97.3,8.9-.4,1.26,1.58,1.8,1.98.54,1.04-3.25.68-6.76-.3-9.99-.38-1.26-2.36-.72-1.98.54h0Z"/>
          </g>
          <g>
            <polygon class="cls-3" points="92.64 104.24 115.24 87.27 115.24 80.05 119.32 77.01 123.61 76.39 128.48 78.48 129.54 84.45 133.34 86.02 135.74 89.21 136.26 93.32 134.07 97.52 128.48 98.66 123.19 97.1 100.28 114.6 100.49 120.95 96.77 124.36 92.64 125.66 87.94 122.42 86.68 117.29 83.75 116.04 80.09 111.97 80.09 106.52 83.44 102.9 87.94 102.44 92.64 104.24"/>
            <path class="cls-2" d="M123.05,77.07c.14.02.27.04.41.07,2.78.57,5.07,3.49,4.99,6.35-.01.49-.08.97-.2,1.42-.06.23.1.46.33.49.02,0,.05,0,.07,0,.38-.02.77,0,1.16.05.19.03.38.06.57.11,3.01.71,5.07,3.58,4.81,6.69-.31,3.65-3.58,6.25-7.13,5.75-1.58-.22-2.95-1.02-3.91-2.16-.1-.12-.23-.19-.37-.21s-.3.01-.42.11l-24.27,18.3c-.24.18-.29.51-.13.76.74,1.2,1.08,2.65.87,4.16-.48,3.41-3.6,5.79-6.97,5.32-.13-.02-.27-.04-.4-.07-2.9-.6-4.99-3.26-4.9-6.25.02-.52.09-1.03.22-1.5.05-.18-.07-.36-.25-.39-.02,0-.04,0-.06,0-.41.03-.83.01-1.25-.04-3.52-.49-5.92-3.89-5.17-7.46.63-3.03,3.44-5.15,6.49-4.93.14.01.27.02.41.04,1.49.21,2.78.94,3.72,1.98.1.11.22.17.36.19.15.02.3-.01.42-.11l24.27-18.31c.24-.18.29-.51.14-.76-.74-1.21-1.08-2.68-.87-4.21.48-3.47,3.66-5.89,7.09-5.41M123.33,75.04h0c-2.2-.31-4.4.27-6.17,1.62-1.77,1.35-2.92,3.31-3.22,5.53-.21,1.48-.01,2.99.55,4.36l-22.31,16.81c-1.14-.91-2.51-1.5-3.96-1.71-.18-.02-.36-.04-.54-.06-4.08-.3-7.8,2.52-8.64,6.55-.47,2.26,0,4.63,1.33,6.5,1.22,1.74,3.08,2.94,5.14,3.34-.04,1.9.59,3.76,1.77,5.27,1.2,1.53,2.89,2.58,4.77,2.97.18.04.36.07.53.09,4.49.63,8.65-2.54,9.29-7.07.21-1.47.01-2.97-.55-4.32l22.26-16.77c1.19,1.01,2.64,1.66,4.2,1.88,2.27.32,4.51-.3,6.32-1.73,1.82-1.45,2.93-3.54,3.13-5.87.35-4.11-2.39-7.92-6.38-8.86-.12-.03-.23-.05-.35-.07.09-3.85-2.87-7.59-6.62-8.37-.18-.04-.36-.07-.54-.09h0Z"/>
            <path class="cls-2" d="M129.68,107.83c.58.08.98.61.9,1.19s-.61.98-1.19.9-.98-.61-.9-1.19.61-.98,1.19-.9M129.97,105.82c-1.69-.24-3.25.95-3.49,2.63s.95,3.25,2.63,3.49,3.25-.95,3.49-2.63-.95-3.25-2.63-3.49h0Z"/>
            <path class="cls-2" d="M113.1,128.83c-.27-.04-.52-.18-.69-.42l-2.46-3.45c-.33-.46-.22-1.1.24-1.43.46-.33,1.1-.22,1.43.24l2.46,3.45c.33.46.22,1.1-.24,1.43-.22.16-.49.21-.74.18Z"/>
            <path class="cls-2" d="M110.14,128.39c-.27-.04-.52-.18-.69-.42-.33-.46-.22-1.1.24-1.43l3.45-2.46c.46-.33,1.1-.22,1.43.24s.22,1.1-.24,1.43l-3.45,2.46c-.22.16-.49.21-.74.18Z"/>
            <path class="cls-2" d="M100.21,77.91c-.27-.04-.52-.18-.69-.42l-2.46-3.45c-.33-.46-.22-1.1.24-1.43.46-.33,1.1-.22,1.43.24l2.46,3.45c.33.46.22,1.1-.24,1.43-.22.16-.49.21-.74.18Z"/>
            <path class="cls-2" d="M97.24,77.47c-.27-.04-.52-.18-.69-.42-.33-.46-.22-1.1.24-1.43l3.45-2.46c.46-.33,1.1-.22,1.43.24.33.46.22,1.1-.24,1.43l-3.45,2.46c-.22.16-.49.21-.74.18Z"/>
            <path class="cls-2" d="M116.58,114.59c-.26-.04-.51-.18-.68-.41l-2.96-4c-.34-.45-.24-1.1.21-1.43.45-.34,1.1-.24,1.43.21l2.96,4c.34.45.24,1.1-.21,1.43-.22.17-.49.23-.75.19Z"/>
            <path class="cls-2" d="M109.97,115.29c-.56-.08-.95-.6-.87-1.16l.45-3.21c.08-.56.6-.95,1.16-.87s.95.6.87,1.16l-.45,3.21c-.08.56-.6.95-1.16.87Z"/>
            <path class="cls-2" d="M119.25,108.48l-3.21-.45c-.56-.08-.95-.6-.87-1.16s.6-.95,1.16-.87l3.21.45c.56.08.95.6.87,1.16s-.6.95-1.16.87Z"/>
            <path class="cls-2" d="M100.65,93.31c-.26-.04-.51-.18-.68-.41l-2.96-4c-.34-.45-.24-1.1.21-1.43.46-.34,1.1-.24,1.43.21l2.96,4c.34.45.24,1.1-.21,1.43-.22.17-.49.23-.75.19Z"/>
            <path class="cls-2" d="M103.86,91.83c-.56-.08-.95-.6-.87-1.16l.45-3.21c.08-.56.6-.95,1.16-.87s.95.6.87,1.16l-.45,3.21c-.08.56-.6.95-1.16.87Z"/>
            <path class="cls-2" d="M98.24,95.87l-3.21-.45c-.56-.08-.95-.6-.87-1.16s.6-.95,1.16-.87l3.21.45c.56.08.95.6.87,1.16s-.6.95-1.16.87Z"/>
            <path class="cls-2" d="M106.71,94.88c4.38-.09,8.68,1.52,11.89,4.5.97.9,2.42-.55,1.45-1.45-3.6-3.34-8.42-5.21-13.34-5.1-1.32.03-1.32,2.08,0,2.05h0Z"/>
            <path class="cls-2" d="M99.32,100.46c4.38-.09,8.68,1.52,11.89,4.5.97.9,2.42-.55,1.45-1.45-3.6-3.34-8.42-5.21-13.34-5.1-1.32.03-1.32,2.08,0,2.05h0Z"/>
            <path class="cls-2" d="M103.9,101.33c.87,2.89,1.23,5.97.3,8.9-.4,1.26,1.58,1.8,1.98.54,1.04-3.25.68-6.76-.3-9.99-.38-1.26-2.36-.72-1.98.54h0Z"/>
          </g>
          <g>
            <polygon class="cls-3" points="168.08 118.21 190.68 101.24 190.68 94.03 194.76 90.98 199.04 90.37 203.92 92.46 204.97 98.42 208.77 99.99 211.18 103.18 211.7 107.3 209.5 111.5 203.92 112.64 198.62 111.08 175.71 128.57 175.92 134.93 172.21 138.33 168.08 139.63 163.37 136.39 162.11 131.27 159.19 130.01 155.52 125.94 155.52 120.49 158.87 116.88 163.37 116.41 168.08 118.21"/>
            <path class="cls-2" d="M198.48,91.04c.14.02.27.04.41.07,2.78.57,5.07,3.49,4.99,6.35-.01.49-.08.97-.2,1.42-.06.23.1.46.33.49.02,0,.05,0,.07,0,.38-.02.77,0,1.16.05.19.03.38.06.57.11,3.01.71,5.07,3.58,4.81,6.69-.31,3.65-3.58,6.25-7.13,5.75-1.58-.22-2.95-1.02-3.91-2.16-.1-.12-.23-.19-.37-.21s-.3.01-.42.11l-24.27,18.3c-.24.18-.29.51-.13.76.74,1.2,1.08,2.65.87,4.16-.48,3.41-3.6,5.79-6.97,5.32-.13-.02-.27-.04-.4-.07-2.9-.6-4.99-3.26-4.9-6.25.02-.52.09-1.03.22-1.5.05-.18-.07-.36-.25-.39-.02,0-.04,0-.06,0-.41.03-.83.01-1.25-.04-3.52-.49-5.92-3.89-5.17-7.46.63-3.03,3.44-5.15,6.49-4.93.14.01.27.02.41.04,1.49.21,2.78.94,3.72,1.98.1.11.22.17.36.19.15.02.3-.01.42-.11l24.27-18.31c.24-.18.29-.51.14-.76-.74-1.21-1.08-2.68-.87-4.21.48-3.47,3.66-5.89,7.09-5.41M198.76,89.01h0c-2.2-.31-4.4.27-6.17,1.62-1.77,1.35-2.92,3.31-3.22,5.53-.21,1.48-.01,2.99.55,4.36l-22.31,16.81c-1.14-.91-2.51-1.5-3.96-1.71-.18-.02-.36-.04-.54-.06-4.08-.3-7.8,2.52-8.64,6.55-.47,2.26,0,4.63,1.33,6.5,1.22,1.74,3.08,2.94,5.14,3.34-.04,1.9.59,3.76,1.77,5.27,1.2,1.53,2.89,2.58,4.77,2.97.18.04.36.07.53.09,4.49.63,8.65-2.54,9.29-7.07.21-1.47.01-2.97-.55-4.32l22.26-16.77c1.19,1.01,2.64,1.66,4.2,1.88,2.27.32,4.51-.3,6.32-1.73,1.82-1.45,2.93-3.54,3.13-5.87.35-4.11-2.39-7.92-6.38-8.86-.12-.03-.23-.05-.35-.07.09-3.85-2.87-7.59-6.62-8.37-.18-.04-.36-.07-.54-.09h0Z"/>
            <path class="cls-2" d="M205.12,121.81c.58.08.98.61.9,1.19s-.61.98-1.19.9-.98-.61-.9-1.19.61-.98,1.19-.9M205.4,119.79c-1.69-.24-3.25.95-3.49,2.63s.95,3.25,2.63,3.49,3.25-.95,3.49-2.63c.24-1.69-.95-3.25-2.63-3.49h0Z"/>
            <path class="cls-2" d="M188.53,142.8c-.27-.04-.52-.18-.69-.42l-2.46-3.45c-.33-.46-.22-1.1.24-1.43.46-.33,1.1-.22,1.43.24l2.46,3.45c.33.46.22,1.1-.24,1.43-.22.16-.49.21-.74.18Z"/>
            <path class="cls-2" d="M185.57,142.37c-.27-.04-.52-.18-.69-.42-.33-.46-.22-1.1.24-1.43l3.45-2.46c.46-.33,1.1-.22,1.43.24s.22,1.1-.24,1.43l-3.45,2.46c-.22.16-.49.21-.74.18Z"/>
            <path class="cls-2" d="M175.64,91.88c-.27-.04-.52-.18-.69-.42l-2.46-3.45c-.33-.46-.22-1.1.24-1.43.46-.33,1.1-.22,1.43.24l2.46,3.45c.33.46.22,1.1-.24,1.43-.22.16-.49.21-.74.18Z"/>
            <path class="cls-2" d="M172.67,91.44c-.27-.04-.52-.18-.69-.42-.33-.46-.22-1.1.24-1.43l3.45-2.46c.46-.33,1.1-.22,1.43.24.33.46.22,1.1-.24,1.43l-3.45,2.46c-.22.16-.49.21-.74.18Z"/>
            <path class="cls-2" d="M192.01,128.56c-.26-.04-.51-.18-.68-.41l-2.96-4c-.34-.45-.24-1.1.21-1.43.45-.34,1.1-.24,1.43.21l2.96,4c.34.45.24,1.1-.21,1.43-.22.17-.49.23-.75.19Z"/>
            <path class="cls-2" d="M185.4,129.26c-.56-.08-.95-.6-.87-1.16l.45-3.21c.08-.56.6-.95,1.16-.87s.95.6.87,1.16l-.45,3.21c-.08.56-.6.95-1.16.87Z"/>
            <path class="cls-2" d="M194.68,122.45l-3.21-.45c-.56-.08-.95-.6-.87-1.16s.6-.95,1.16-.87l3.21.45c.56.08.95.6.87,1.16s-.6.95-1.16.87Z"/>
            <path class="cls-2" d="M176.09,107.29c-.26-.04-.51-.18-.68-.41l-2.96-4c-.34-.45-.24-1.1.21-1.43.46-.34,1.1-.24,1.43.21l2.96,4c.34.45.24,1.1-.21,1.43-.22.17-.49.23-.75.19Z"/>
            <path class="cls-2" d="M179.29,105.8c-.56-.08-.95-.6-.87-1.16l.45-3.21c.08-.56.6-.95,1.16-.87s.95.6.87,1.16l-.45,3.21c-.08.56-.6.95-1.16.87Z"/>
            <path class="cls-2" d="M173.67,109.85l-3.21-.45c-.56-.08-.95-.6-.87-1.16s.6-.95,1.16-.87l3.21.45c.56.08.95.6.87,1.16s-.6.95-1.16.87Z"/>
            <path class="cls-2" d="M182.14,108.86c4.38-.09,8.68,1.52,11.89,4.5.97.9,2.42-.55,1.45-1.45-3.6-3.34-8.42-5.21-13.34-5.1-1.32.03-1.32,2.08,0,2.05h0Z"/>
            <path class="cls-2" d="M174.76,114.43c4.38-.09,8.68,1.52,11.89,4.5.97.9,2.42-.55,1.45-1.45-3.6-3.34-8.42-5.21-13.34-5.1-1.32.03-1.32,2.08,0,2.05h0Z"/>
            <path class="cls-2" d="M179.33,115.3c.87,2.89,1.23,5.97.3,8.9-.4,1.26,1.58,1.8,1.98.54,1.04-3.25.68-6.76-.3-9.99-.38-1.26-2.36-.72-1.98.54h0Z"/>
          </g>
          <g>
            <polygon class="cls-3" points="14.28 154.73 36.88 137.76 36.88 130.55 40.96 127.5 45.25 126.88 50.12 128.98 51.18 134.94 54.97 136.51 57.38 139.7 57.9 143.82 55.71 148.01 50.12 149.16 44.83 147.6 21.92 165.09 22.13 171.45 18.41 174.85 14.28 176.15 9.58 172.91 8.32 167.79 5.39 166.53 1.73 162.46 1.73 157.01 5.08 153.39 9.58 152.93 14.28 154.73"/>
            <path class="cls-2" d="M44.68,127.56c.14.02.27.04.41.07,2.78.57,5.07,3.49,4.99,6.35-.01.49-.08.97-.2,1.42-.06.23.1.46.33.49.02,0,.05,0,.07,0,.38-.02.77,0,1.16.05.19.03.38.06.57.11,3.01.71,5.07,3.58,4.81,6.69-.31,3.65-3.58,6.25-7.13,5.75-1.58-.22-2.95-1.02-3.91-2.16-.1-.12-.23-.19-.37-.21s-.3.01-.42.11l-24.27,18.3c-.24.18-.29.51-.13.76.74,1.2,1.08,2.65.87,4.16-.48,3.41-3.6,5.79-6.97,5.32-.13-.02-.27-.04-.4-.07-2.9-.6-4.99-3.26-4.9-6.25.02-.52.09-1.03.22-1.5.05-.18-.07-.36-.25-.39-.02,0-.04,0-.06,0-.41.03-.83.01-1.25-.04-3.52-.49-5.92-3.89-5.17-7.46.63-3.03,3.44-5.15,6.49-4.93.14.01.27.02.41.04,1.49.21,2.78.94,3.72,1.98.1.11.22.17.36.19.15.02.3-.01.42-.11l24.27-18.31c.24-.18.29-.51.14-.76-.74-1.21-1.08-2.68-.87-4.21.48-3.47,3.66-5.89,7.09-5.41M44.97,125.53h0c-2.2-.31-4.4.27-6.17,1.62-1.77,1.35-2.92,3.31-3.22,5.53-.21,1.48-.01,2.99.55,4.36l-22.31,16.81c-1.14-.91-2.51-1.5-3.96-1.71-.18-.02-.36-.04-.54-.06-4.08-.3-7.8,2.52-8.64,6.55-.47,2.26,0,4.63,1.33,6.5,1.22,1.74,3.08,2.94,5.14,3.34-.04,1.9.59,3.76,1.77,5.27,1.2,1.53,2.89,2.58,4.77,2.97.18.04.36.07.53.09,4.49.63,8.65-2.54,9.29-7.07.21-1.47.01-2.97-.55-4.32l22.26-16.77c1.19,1.01,2.64,1.66,4.2,1.88,2.27.32,4.51-.3,6.32-1.73,1.82-1.45,2.93-3.54,3.13-5.87.35-4.11-2.39-7.92-6.38-8.86-.12-.03-.23-.05-.35-.07.09-3.85-2.87-7.59-6.62-8.37-.18-.04-.36-.07-.54-.09h0Z"/>
            <path class="cls-2" d="M51.32,158.33c.58.08.98.61.9,1.19s-.61.98-1.19.9-.98-.61-.9-1.19.61-.98,1.19-.9M51.6,156.31c-1.69-.24-3.25.95-3.49,2.63s.95,3.25,2.63,3.49,3.25-.95,3.49-2.63-.95-3.25-2.63-3.49h0Z"/>
            <path class="cls-2" d="M34.74,179.32c-.27-.04-.52-.18-.69-.42l-2.46-3.45c-.33-.46-.22-1.1.24-1.43.46-.33,1.1-.22,1.43.24l2.46,3.45c.33.46.22,1.1-.24,1.43-.22.16-.49.21-.74.18Z"/>
            <path class="cls-2" d="M31.77,178.89c-.27-.04-.52-.18-.69-.42-.33-.46-.22-1.1.24-1.43l3.45-2.46c.46-.33,1.1-.22,1.43.24s.22,1.1-.24,1.43l-3.45,2.46c-.22.16-.49.21-.74.18Z"/>
            <path class="cls-2" d="M21.84,128.4c-.27-.04-.52-.18-.69-.42l-2.46-3.45c-.33-.46-.22-1.1.24-1.43.46-.33,1.1-.22,1.43.24l2.46,3.45c.33.46.22,1.1-.24,1.43-.22.16-.49.21-.74.18Z"/>
            <path class="cls-2" d="M18.88,127.96c-.27-.04-.52-.18-.69-.42-.33-.46-.22-1.1.24-1.43l3.45-2.46c.46-.33,1.1-.22,1.43.24.33.46.22,1.1-.24,1.43l-3.45,2.46c-.22.16-.49.21-.74.18Z"/>
            <path class="cls-2" d="M38.22,165.08c-.26-.04-.51-.18-.68-.41l-2.96-4c-.34-.45-.24-1.1.21-1.43.45-.34,1.1-.24,1.43.21l2.96,4c.34.45.24,1.1-.21,1.43-.22.17-.49.23-.75.19Z"/>
            <path class="cls-2" d="M31.61,165.78c-.56-.08-.95-.6-.87-1.16l.45-3.21c.08-.56.6-.95,1.16-.87s.95.6.87,1.16l-.45,3.21c-.08.56-.6.95-1.16.87Z"/>
            <path class="cls-2" d="M40.89,158.97l-3.21-.45c-.56-.08-.95-.6-.87-1.16s.6-.95,1.16-.87l3.21.45c.56.08.95.6.87,1.16s-.6.95-1.16.87Z"/>
            <path class="cls-2" d="M22.29,143.81c-.26-.04-.51-.18-.68-.41l-2.96-4c-.34-.45-.24-1.1.21-1.43.46-.34,1.1-.24,1.43.21l2.96,4c.34.45.24,1.1-.21,1.43-.22.17-.49.23-.75.19Z"/>
            <path class="cls-2" d="M25.49,142.32c-.56-.08-.95-.6-.87-1.16l.45-3.21c.08-.56.6-.95,1.16-.87s.95.6.87,1.16l-.45,3.21c-.08.56-.6.95-1.16.87Z"/>
            <path class="cls-2" d="M19.88,146.37l-3.21-.45c-.56-.08-.95-.6-.87-1.16s.6-.95,1.16-.87l3.21.45c.56.08.95.6.87,1.16s-.6.95-1.16.87Z"/>
            <path class="cls-2" d="M28.34,145.38c4.38-.09,8.68,1.52,11.89,4.5.97.9,2.42-.55,1.45-1.45-3.6-3.34-8.42-5.21-13.34-5.1-1.32.03-1.32,2.08,0,2.05h0Z"/>
            <path class="cls-2" d="M20.96,150.95c4.38-.09,8.68,1.52,11.89,4.5.97.9,2.42-.55,1.45-1.45-3.6-3.34-8.42-5.21-13.34-5.1-1.32.03-1.32,2.08,0,2.05h0Z"/>
            <path class="cls-2" d="M25.54,151.82c.87,2.89,1.23,5.97.3,8.9-.4,1.26,1.58,1.8,1.98.54,1.04-3.25.68-6.76-.3-9.99-.38-1.26-2.36-.72-1.98.54h0Z"/>
          </g>
          <g>
            <polygon class="cls-3" points="89.72 168.7 112.31 151.74 112.31 144.52 116.4 141.47 120.68 140.86 125.56 142.95 126.61 148.91 130.41 150.48 132.81 153.67 133.34 157.79 131.14 161.99 125.56 163.13 120.26 161.57 97.35 179.07 97.56 185.42 93.85 188.82 89.72 190.13 85.01 186.88 83.75 181.76 80.82 180.5 77.16 176.43 77.16 170.98 80.51 167.37 85.01 166.9 89.72 168.7"/>
            <path class="cls-2" d="M120.12,141.54c.14.02.27.04.41.07,2.78.57,5.07,3.49,4.99,6.35-.01.49-.08.97-.2,1.42-.06.23.1.46.33.49.02,0,.05,0,.07,0,.38-.02.77,0,1.16.05.19.03.38.06.57.11,3.01.71,5.07,3.58,4.81,6.69-.31,3.65-3.58,6.25-7.13,5.75-1.58-.22-2.95-1.02-3.91-2.16-.1-.12-.23-.19-.37-.21s-.3.01-.42.11l-24.27,18.3c-.24.18-.29.51-.13.76.74,1.2,1.08,2.65.87,4.16-.48,3.41-3.6,5.79-6.97,5.32-.13-.02-.27-.04-.4-.07-2.9-.6-4.99-3.26-4.9-6.25.02-.52.09-1.03.22-1.5.05-.18-.07-.36-.25-.39-.02,0-.04,0-.06,0-.41.03-.83.01-1.25-.04-3.52-.49-5.92-3.89-5.17-7.46.63-3.03,3.44-5.15,6.49-4.93.14.01.27.02.41.04,1.49.21,2.78.94,3.72,1.98.1.11.22.17.36.19.15.02.3-.01.42-.11l24.27-18.31c.24-.18.29-.51.14-.76-.74-1.21-1.08-2.68-.87-4.21.48-3.47,3.66-5.89,7.09-5.41M120.4,139.51h0c-2.2-.31-4.4.27-6.17,1.62-1.77,1.35-2.92,3.31-3.22,5.53-.21,1.48-.01,2.99.55,4.36l-22.31,16.81c-1.14-.91-2.51-1.5-3.96-1.71-.18-.02-.36-.04-.54-.06-4.08-.3-7.8,2.52-8.64,6.55-.47,2.26,0,4.63,1.33,6.5,1.22,1.74,3.08,2.94,5.14,3.34-.04,1.9.59,3.76,1.77,5.27,1.2,1.53,2.89,2.58,4.77,2.97.18.04.36.07.53.09,4.49.63,8.65-2.54,9.29-7.07.21-1.47.01-2.97-.55-4.32l22.26-16.77c1.19,1.01,2.64,1.66,4.2,1.88,2.27.32,4.51-.3,6.32-1.73,1.82-1.45,2.93-3.54,3.13-5.87.35-4.11-2.39-7.92-6.38-8.86-.12-.03-.23-.05-.35-.07.09-3.85-2.87-7.59-6.62-8.37-.18-.04-.36-.07-.54-.09h0Z"/>
            <path class="cls-2" d="M126.76,172.3c.58.08.98.61.9,1.19s-.61.98-1.19.9-.98-.61-.9-1.19.61-.98,1.19-.9M127.04,170.29c-1.69-.24-3.25.95-3.49,2.63s.95,3.25,2.63,3.49,3.25-.95,3.49-2.63c.24-1.69-.95-3.25-2.63-3.49h0Z"/>
            <path class="cls-2" d="M110.17,193.3c-.27-.04-.52-.18-.69-.42l-2.46-3.45c-.33-.46-.22-1.1.24-1.43.46-.33,1.1-.22,1.43.24l2.46,3.45c.33.46.22,1.1-.24,1.43-.22.16-.49.21-.74.18Z"/>
            <path class="cls-2" d="M107.21,192.86c-.27-.04-.52-.18-.69-.42-.33-.46-.22-1.1.24-1.43l3.45-2.46c.46-.33,1.1-.22,1.43.24.33.46.22,1.1-.24,1.43l-3.45,2.46c-.22.16-.49.21-.74.18Z"/>
            <path class="cls-2" d="M97.28,142.37c-.27-.04-.52-.18-.69-.42l-2.46-3.45c-.33-.46-.22-1.1.24-1.43.46-.33,1.1-.22,1.43.24l2.46,3.45c.33.46.22,1.1-.24,1.43-.22.16-.49.21-.74.18Z"/>
            <path class="cls-2" d="M94.31,141.94c-.27-.04-.52-.18-.69-.42-.33-.46-.22-1.1.24-1.43l3.45-2.46c.46-.33,1.1-.22,1.43.24.33.46.22,1.1-.24,1.43l-3.45,2.46c-.22.16-.49.21-.74.18Z"/>
            <path class="cls-2" d="M113.65,179.06c-.26-.04-.51-.18-.68-.41l-2.96-4c-.34-.45-.24-1.1.21-1.43.45-.34,1.1-.24,1.43.21l2.96,4c.34.45.24,1.1-.21,1.43-.22.17-.49.23-.75.19Z"/>
            <path class="cls-2" d="M107.04,179.75c-.56-.08-.95-.6-.87-1.16l.45-3.21c.08-.56.6-.95,1.16-.87s.95.6.87,1.16l-.45,3.21c-.08.56-.6.95-1.16.87Z"/>
            <path class="cls-2" d="M116.32,172.94l-3.21-.45c-.56-.08-.95-.6-.87-1.16s.6-.95,1.16-.87l3.21.45c.56.08.95.6.87,1.16s-.6.95-1.16.87Z"/>
            <path class="cls-2" d="M97.73,157.78c-.26-.04-.51-.18-.68-.41l-2.96-4c-.34-.45-.24-1.1.21-1.43.46-.34,1.1-.24,1.43.21l2.96,4c.34.45.24,1.1-.21,1.43-.22.17-.49.23-.75.19Z"/>
            <path class="cls-2" d="M100.93,156.29c-.56-.08-.95-.6-.87-1.16l.45-3.21c.08-.56.6-.95,1.16-.87s.95.6.87,1.16l-.45,3.21c-.08.56-.6.95-1.16.87Z"/>
            <path class="cls-2" d="M95.31,160.34l-3.21-.45c-.56-.08-.95-.6-.87-1.16s.6-.95,1.16-.87l3.21.45c.56.08.95.6.87,1.16s-.6.95-1.16.87Z"/>
            <path class="cls-2" d="M103.78,159.35c4.38-.09,8.68,1.52,11.89,4.5.97.9,2.42-.55,1.45-1.45-3.6-3.34-8.42-5.21-13.34-5.1-1.32.03-1.32,2.08,0,2.05h0Z"/>
            <path class="cls-2" d="M96.4,164.92c4.38-.09,8.68,1.52,11.89,4.5.97.9,2.42-.55,1.45-1.45-3.6-3.34-8.42-5.21-13.34-5.1-1.32.03-1.32,2.08,0,2.05h0Z"/>
            <path class="cls-2" d="M100.97,165.79c.87,2.89,1.23,5.97.3,8.9-.4,1.26,1.58,1.8,1.98.54,1.04-3.25.68-6.76-.3-9.99-.38-1.26-2.36-.72-1.98.54h0Z"/>
          </g>
          <g>
            <polygon class="cls-3" points="165.15 182.68 187.75 165.71 187.75 158.49 191.83 155.45 196.11 154.83 200.99 156.92 202.04 162.89 205.84 164.45 208.25 167.64 208.77 171.76 206.57 175.96 200.99 177.1 195.69 175.54 172.79 193.04 173 199.39 169.28 202.79 165.15 204.1 160.44 200.86 159.19 195.73 156.26 194.48 152.6 190.41 152.6 184.96 155.94 181.34 160.44 180.88 165.15 182.68"/>
            <path class="cls-2" d="M195.55,155.51c.14.02.27.04.41.07,2.78.57,5.07,3.49,4.99,6.35-.01.49-.08.97-.2,1.42-.06.23.1.46.33.49.02,0,.05,0,.07,0,.38-.02.77,0,1.16.05.19.03.38.06.57.11,3.01.71,5.07,3.58,4.81,6.69-.31,3.65-3.58,6.25-7.13,5.75-1.58-.22-2.95-1.02-3.91-2.16-.1-.12-.23-.19-.37-.21s-.3.01-.42.11l-24.27,18.3c-.24.18-.29.51-.13.76.74,1.2,1.08,2.65.87,4.16-.48,3.41-3.6,5.79-6.97,5.32-.13-.02-.27-.04-.4-.07-2.9-.6-4.99-3.26-4.9-6.25.02-.52.09-1.03.22-1.5.05-.18-.07-.36-.25-.39-.02,0-.04,0-.06,0-.41.03-.83.01-1.25-.04-3.52-.49-5.92-3.89-5.17-7.46.63-3.03,3.44-5.15,6.49-4.93.14.01.27.02.41.04,1.49.21,2.78.94,3.72,1.98.1.11.22.17.36.19.15.02.3-.01.42-.11l24.27-18.31c.24-.18.29-.51.14-.76-.74-1.21-1.08-2.68-.87-4.21.48-3.47,3.66-5.89,7.09-5.41M195.83,153.48h0c-2.2-.31-4.4.27-6.17,1.62-1.77,1.35-2.92,3.31-3.22,5.53-.21,1.48-.01,2.99.55,4.36l-22.31,16.81c-1.14-.91-2.51-1.5-3.96-1.71-.18-.02-.36-.04-.54-.06-4.08-.3-7.8,2.52-8.64,6.55-.47,2.26,0,4.63,1.33,6.5,1.22,1.74,3.08,2.94,5.14,3.34-.04,1.9.59,3.76,1.77,5.27,1.2,1.53,2.89,2.58,4.77,2.97.18.04.36.07.53.09,4.49.63,8.65-2.54,9.29-7.07.21-1.47.01-2.97-.55-4.32l22.26-16.77c1.19,1.01,2.64,1.66,4.2,1.88,2.27.32,4.51-.3,6.32-1.73,1.82-1.45,2.93-3.54,3.13-5.87.35-4.11-2.39-7.92-6.38-8.86-.12-.03-.23-.05-.35-.07.09-3.85-2.87-7.59-6.62-8.37-.18-.04-.36-.07-.54-.09h0Z"/>
            <path class="cls-2" d="M202.19,186.27c.58.08.98.61.9,1.19s-.61.98-1.19.9-.98-.61-.9-1.19.61-.98,1.19-.9M202.47,184.26c-1.69-.24-3.25.95-3.49,2.63-.24,1.69.95,3.25,2.63,3.49s3.25-.95,3.49-2.63c.24-1.69-.95-3.25-2.63-3.49h0Z"/>
            <path class="cls-2" d="M185.61,207.27c-.27-.04-.52-.18-.69-.42l-2.46-3.45c-.33-.46-.22-1.1.24-1.43.46-.33,1.1-.22,1.43.24l2.46,3.45c.33.46.22,1.1-.24,1.43-.22.16-.49.21-.74.18Z"/>
            <path class="cls-2" d="M182.64,206.83c-.27-.04-.52-.18-.69-.42-.33-.46-.22-1.1.24-1.43l3.45-2.46c.46-.33,1.1-.22,1.43.24s.22,1.1-.24,1.43l-3.45,2.46c-.22.16-.49.21-.74.18Z"/>
            <path class="cls-2" d="M172.71,156.34c-.27-.04-.52-.18-.69-.42l-2.46-3.45c-.33-.46-.22-1.1.24-1.43.46-.33,1.1-.22,1.43.24l2.46,3.45c.33.46.22,1.1-.24,1.43-.22.16-.49.21-.74.18Z"/>
            <path class="cls-2" d="M169.75,155.91c-.27-.04-.52-.18-.69-.42-.33-.46-.22-1.1.24-1.43l3.45-2.46c.46-.33,1.1-.22,1.43.24.33.46.22,1.1-.24,1.43l-3.45,2.46c-.22.16-.49.21-.74.18Z"/>
            <path class="cls-2" d="M189.09,193.03c-.26-.04-.51-.18-.68-.41l-2.96-4c-.34-.45-.24-1.1.21-1.43.45-.34,1.1-.24,1.43.21l2.96,4c.34.45.24,1.1-.21,1.43-.22.17-.49.23-.75.19Z"/>
            <path class="cls-2" d="M182.48,193.73c-.56-.08-.95-.6-.87-1.16l.45-3.21c.08-.56.6-.95,1.16-.87s.95.6.87,1.16l-.45,3.21c-.08.56-.6.95-1.16.87Z"/>
            <path class="cls-2" d="M191.75,186.92l-3.21-.45c-.56-.08-.95-.6-.87-1.16s.6-.95,1.16-.87l3.21.45c.56.08.95.6.87,1.16-.08.56-.6.95-1.16.87Z"/>
            <path class="cls-2" d="M173.16,171.75c-.26-.04-.51-.18-.68-.41l-2.96-4c-.34-.45-.24-1.1.21-1.43.46-.34,1.1-.24,1.43.21l2.96,4c.34.45.24,1.1-.21,1.43-.22.17-.49.23-.75.19Z"/>
            <path class="cls-2" d="M176.36,170.26c-.56-.08-.95-.6-.87-1.16l.45-3.21c.08-.56.6-.95,1.16-.87s.95.6.87,1.16l-.45,3.21c-.08.56-.6.95-1.16.87Z"/>
            <path class="cls-2" d="M170.74,174.31l-3.21-.45c-.56-.08-.95-.6-.87-1.16s.6-.95,1.16-.87l3.21.45c.56.08.95.6.87,1.16s-.6.95-1.16.87Z"/>
            <path class="cls-2" d="M179.21,173.32c4.38-.09,8.68,1.52,11.89,4.5.97.9,2.42-.55,1.45-1.45-3.6-3.34-8.42-5.21-13.34-5.1-1.32.03-1.32,2.08,0,2.05h0Z"/>
            <path class="cls-2" d="M171.83,178.89c4.38-.09,8.68,1.52,11.89,4.5.97.9,2.42-.55,1.45-1.45-3.6-3.34-8.42-5.21-13.34-5.1-1.32.03-1.32,2.08,0,2.05h0Z"/>
            <path class="cls-2" d="M176.41,179.77c.87,2.89,1.23,5.97.3,8.9-.4,1.26,1.58,1.8,1.98.54,1.04-3.25.68-6.76-.3-9.99-.38-1.26-2.36-.72-1.98.54h0Z"/>
          </g>
          <g>
            <polygon class="cls-3" points="11.35 219.19 33.95 202.23 33.95 195.01 38.03 191.97 42.32 191.35 47.19 193.44 48.25 199.4 52.05 200.97 54.45 204.16 54.98 208.28 52.78 212.48 47.19 213.62 41.9 212.06 18.99 229.56 19.2 235.91 15.48 239.31 11.35 240.62 6.65 237.38 5.39 232.25 2.46 231 -1.2 226.93 -1.2 221.48 2.15 217.86 6.65 217.4 11.35 219.19"/>
            <path class="cls-2" d="M41.76,192.03c.14.02.27.04.41.07,2.78.57,5.07,3.49,4.99,6.35-.01.49-.08.97-.2,1.42-.06.23.1.46.33.49.02,0,.05,0,.07,0,.38-.02.77,0,1.16.05.19.03.38.06.57.11,3.01.71,5.07,3.58,4.81,6.69-.31,3.65-3.58,6.25-7.13,5.75-1.58-.22-2.95-1.02-3.91-2.16-.1-.12-.23-.19-.37-.21s-.3.01-.42.11l-24.27,18.3c-.24.18-.29.51-.13.76.74,1.2,1.08,2.65.87,4.16-.48,3.41-3.6,5.79-6.97,5.32-.13-.02-.27-.04-.4-.07-2.9-.6-4.99-3.26-4.9-6.25.02-.52.09-1.03.22-1.5.05-.18-.07-.36-.25-.39-.02,0-.04,0-.06,0-.41.03-.83.01-1.25-.04-3.52-.49-5.92-3.89-5.17-7.46.63-3.03,3.44-5.15,6.49-4.93.14.01.27.02.41.04,1.49.21,2.78.94,3.72,1.98.1.11.22.17.36.19.15.02.3-.01.42-.11l24.27-18.31c.24-.18.29-.51.14-.76-.74-1.21-1.08-2.68-.87-4.21.48-3.47,3.66-5.89,7.09-5.41M42.04,190h0c-2.2-.31-4.4.27-6.17,1.62-1.77,1.35-2.92,3.31-3.22,5.53-.21,1.48-.01,2.99.55,4.36l-22.31,16.81c-1.14-.91-2.51-1.5-3.96-1.71-.18-.02-.36-.04-.54-.06-4.08-.3-7.8,2.52-8.64,6.55-.47,2.26,0,4.63,1.33,6.5,1.22,1.74,3.08,2.94,5.14,3.34-.04,1.9.59,3.76,1.77,5.27,1.2,1.53,2.89,2.58,4.77,2.97.18.04.36.07.53.09,4.49.63,8.65-2.54,9.29-7.07.21-1.47.01-2.97-.55-4.32l22.26-16.77c1.19,1.01,2.64,1.66,4.2,1.88,2.27.32,4.51-.3,6.32-1.73,1.82-1.45,2.93-3.54,3.13-5.87.35-4.11-2.39-7.92-6.38-8.86-.12-.03-.23-.05-.35-.07.09-3.85-2.87-7.59-6.62-8.37-.18-.04-.36-.07-.54-.09h0Z"/>
            <path class="cls-2" d="M48.39,222.79c.58.08.98.61.9,1.19s-.61.98-1.19.9-.98-.61-.9-1.19.61-.98,1.19-.9M48.68,220.78c-1.69-.24-3.25.95-3.49,2.63s.95,3.25,2.63,3.49,3.25-.95,3.49-2.63c.24-1.69-.95-3.25-2.63-3.49h0Z"/>
            <path class="cls-2" d="M31.81,243.79c-.27-.04-.52-.18-.69-.42l-2.46-3.45c-.33-.46-.22-1.1.24-1.43.46-.33,1.1-.22,1.43.24l2.46,3.45c.33.46.22,1.1-.24,1.43-.22.16-.49.21-.74.18Z"/>
            <path class="cls-2" d="M28.85,243.35c-.27-.04-.52-.18-.69-.42-.33-.46-.22-1.1.24-1.43l3.45-2.46c.46-.33,1.1-.22,1.43.24s.22,1.1-.24,1.43l-3.45,2.46c-.22.16-.49.21-.74.18Z"/>
            <path class="cls-2" d="M18.92,192.86c-.27-.04-.52-.18-.69-.42l-2.46-3.45c-.33-.46-.22-1.1.24-1.43.46-.33,1.1-.22,1.43.24l2.46,3.45c.33.46.22,1.1-.24,1.43-.22.16-.49.21-.74.18Z"/>
            <path class="cls-2" d="M15.95,192.43c-.27-.04-.52-.18-.69-.42-.33-.46-.22-1.1.24-1.43l3.45-2.46c.46-.33,1.1-.22,1.43.24.33.46.22,1.1-.24,1.43l-3.45,2.46c-.22.16-.49.21-.74.18Z"/>
            <path class="cls-2" d="M35.29,229.55c-.26-.04-.51-.18-.68-.41l-2.96-4c-.34-.45-.24-1.1.21-1.43.45-.34,1.1-.24,1.43.21l2.96,4c.34.45.24,1.1-.21,1.43-.22.17-.49.23-.75.19Z"/>
            <path class="cls-2" d="M28.68,230.25c-.56-.08-.95-.6-.87-1.16l.45-3.21c.08-.56.6-.95,1.16-.87s.95.6.87,1.16l-.45,3.21c-.08.56-.6.95-1.16.87Z"/>
            <path class="cls-2" d="M37.96,223.43l-3.21-.45c-.56-.08-.95-.6-.87-1.16s.6-.95,1.16-.87l3.21.45c.56.08.95.6.87,1.16s-.6.95-1.16.87Z"/>
            <path class="cls-2" d="M19.37,208.27c-.26-.04-.51-.18-.68-.41l-2.96-4c-.34-.45-.24-1.1.21-1.43.46-.34,1.1-.24,1.43.21l2.96,4c.34.45.24,1.1-.21,1.43-.22.17-.49.23-.75.19Z"/>
            <path class="cls-2" d="M22.57,206.78c-.56-.08-.95-.6-.87-1.16l.45-3.21c.08-.56.6-.95,1.16-.87s.95.6.87,1.16l-.45,3.21c-.08.56-.6.95-1.16.87Z"/>
            <path class="cls-2" d="M16.95,210.83l-3.21-.45c-.56-.08-.95-.6-.87-1.16s.6-.95,1.16-.87l3.21.45c.56.08.95.6.87,1.16s-.6.95-1.16.87Z"/>
            <path class="cls-2" d="M25.42,209.84c4.38-.09,8.68,1.52,11.89,4.5.97.9,2.42-.55,1.45-1.45-3.6-3.34-8.42-5.21-13.34-5.1-1.32.03-1.32,2.08,0,2.05h0Z"/>
            <path class="cls-2" d="M18.03,215.41c4.38-.09,8.68,1.52,11.89,4.5.97.9,2.42-.55,1.45-1.45-3.6-3.34-8.42-5.21-13.34-5.1-1.32.03-1.32,2.08,0,2.05h0Z"/>
            <path class="cls-2" d="M22.61,216.29c.87,2.89,1.23,5.97.3,8.9-.4,1.26,1.58,1.8,1.98.54,1.04-3.25.68-6.76-.3-9.99-.38-1.26-2.36-.72-1.98.54h0Z"/>
          </g>
          <g>
            <polygon class="cls-3" points="86.79 233.17 109.39 216.2 109.39 208.98 113.47 205.94 117.75 205.32 122.63 207.42 123.68 213.38 127.48 214.95 129.89 218.14 130.41 222.26 128.21 226.45 122.63 227.6 117.33 226.04 94.42 243.53 94.63 249.89 90.92 253.29 86.79 254.59 82.08 251.35 80.83 246.22 77.9 244.97 74.24 240.9 74.24 235.45 77.58 231.83 82.08 231.37 86.79 233.17"/>
            <path class="cls-2" d="M117.19,206c.14.02.27.04.41.07,2.78.57,5.07,3.49,4.99,6.35-.01.49-.08.97-.2,1.42-.06.23.1.46.33.49.02,0,.05,0,.07,0,.38-.02.77,0,1.16.05.19.03.38.06.57.11,3.01.71,5.07,3.58,4.81,6.69-.31,3.65-3.58,6.25-7.13,5.75-1.58-.22-2.95-1.02-3.91-2.16-.1-.12-.23-.19-.37-.21s-.3.01-.42.11l-24.27,18.3c-.24.18-.29.51-.13.76.74,1.2,1.08,2.65.87,4.16-.48,3.41-3.6,5.79-6.97,5.32-.13-.02-.27-.04-.4-.07-2.9-.6-4.99-3.26-4.9-6.25.02-.52.09-1.03.22-1.5.05-.18-.07-.36-.25-.39-.02,0-.04,0-.06,0-.41.03-.83.01-1.25-.04-3.52-.49-5.92-3.89-5.17-7.46.63-3.03,3.44-5.15,6.49-4.93.14.01.27.02.41.04,1.49.21,2.78.94,3.72,1.98.1.11.22.17.36.19.15.02.3-.01.42-.11l24.27-18.31c.24-.18.29-.51.14-.76-.74-1.21-1.08-2.68-.87-4.21.48-3.47,3.66-5.89,7.09-5.41M117.47,203.97h0c-2.2-.31-4.4.27-6.17,1.62-1.77,1.35-2.92,3.31-3.22,5.53-.21,1.48-.01,2.99.55,4.36l-22.31,16.81c-1.14-.91-2.51-1.5-3.96-1.71-.18-.02-.36-.04-.54-.06-4.08-.3-7.8,2.52-8.64,6.55-.47,2.26,0,4.63,1.33,6.5,1.22,1.74,3.08,2.94,5.14,3.34-.04,1.9.59,3.76,1.77,5.27,1.2,1.53,2.89,2.58,4.77,2.97.18.04.36.07.53.09,4.49.63,8.65-2.54,9.29-7.07.21-1.47.01-2.97-.55-4.32l22.26-16.77c1.19,1.01,2.64,1.66,4.2,1.88,2.27.32,4.51-.3,6.32-1.73,1.82-1.45,2.93-3.54,3.13-5.87.35-4.11-2.39-7.92-6.38-8.86-.12-.03-.23-.05-.35-.07.09-3.85-2.87-7.59-6.62-8.37-.18-.04-.36-.07-.54-.09h0Z"/>
            <path class="cls-2" d="M123.83,236.77c.58.08.98.61.9,1.19s-.61.98-1.19.9-.98-.61-.9-1.19.61-.98,1.19-.9M124.11,234.75c-1.69-.24-3.25.95-3.49,2.63-.24,1.69.95,3.25,2.63,3.49s3.25-.95,3.49-2.63c.24-1.69-.95-3.25-2.63-3.49h0Z"/>
            <path class="cls-2" d="M107.25,257.76c-.27-.04-.52-.18-.69-.42l-2.46-3.45c-.33-.46-.22-1.1.24-1.43.46-.33,1.1-.22,1.43.24l2.46,3.45c.33.46.22,1.1-.24,1.43-.22.16-.49.21-.74.18Z"/>
            <path class="cls-2" d="M104.28,257.33c-.27-.04-.52-.18-.69-.42-.33-.46-.22-1.1.24-1.43l3.45-2.46c.46-.33,1.1-.22,1.43.24s.22,1.1-.24,1.43l-3.45,2.46c-.22.16-.49.21-.74.18Z"/>
            <path class="cls-2" d="M94.35,206.84c-.27-.04-.52-.18-.69-.42l-2.46-3.45c-.33-.46-.22-1.1.24-1.43.46-.33,1.1-.22,1.43.24l2.46,3.45c.33.46.22,1.1-.24,1.43-.22.16-.49.21-.74.18Z"/>
            <path class="cls-2" d="M91.39,206.4c-.27-.04-.52-.18-.69-.42-.33-.46-.22-1.1.24-1.43l3.45-2.46c.46-.33,1.1-.22,1.43.24.33.46.22,1.1-.24,1.43l-3.45,2.46c-.22.16-.49.21-.74.18Z"/>
            <path class="cls-2" d="M110.73,243.52c-.26-.04-.51-.18-.68-.41l-2.96-4c-.34-.45-.24-1.1.21-1.43.45-.34,1.1-.24,1.43.21l2.96,4c.34.45.24,1.1-.21,1.43-.22.17-.49.23-.75.19Z"/>
            <path class="cls-2" d="M104.12,244.22c-.56-.08-.95-.6-.87-1.16l.45-3.21c.08-.56.6-.95,1.16-.87s.95.6.87,1.16l-.45,3.21c-.08.56-.6.95-1.16.87Z"/>
            <path class="cls-2" d="M113.39,237.41l-3.21-.45c-.56-.08-.95-.6-.87-1.16s.6-.95,1.16-.87l3.21.45c.56.08.95.6.87,1.16-.08.56-.6.95-1.16.87Z"/>
            <path class="cls-2" d="M94.8,222.25c-.26-.04-.51-.18-.68-.41l-2.96-4c-.34-.45-.24-1.1.21-1.43.46-.34,1.1-.24,1.43.21l2.96,4c.34.45.24,1.1-.21,1.43-.22.17-.49.23-.75.19Z"/>
            <path class="cls-2" d="M98,220.76c-.56-.08-.95-.6-.87-1.16l.45-3.21c.08-.56.6-.95,1.16-.87s.95.6.87,1.16l-.45,3.21c-.08.56-.6.95-1.16.87Z"/>
            <path class="cls-2" d="M92.38,224.81l-3.21-.45c-.56-.08-.95-.6-.87-1.16s.6-.95,1.16-.87l3.21.45c.56.08.95.6.87,1.16s-.6.95-1.16.87Z"/>
            <path class="cls-2" d="M100.85,223.81c4.38-.09,8.68,1.52,11.89,4.5.97.9,2.42-.55,1.45-1.45-3.6-3.34-8.42-5.21-13.34-5.1-1.32.03-1.32,2.08,0,2.05h0Z"/>
            <path class="cls-2" d="M93.47,229.39c4.38-.09,8.68,1.52,11.89,4.5.97.9,2.42-.55,1.45-1.45-3.6-3.34-8.42-5.21-13.34-5.1-1.32.03-1.32,2.08,0,2.05h0Z"/>
            <path class="cls-2" d="M98.05,230.26c.87,2.89,1.23,5.97.3,8.9-.4,1.26,1.58,1.8,1.98.54,1.04-3.25.68-6.76-.3-9.99-.38-1.26-2.36-.72-1.98.54h0Z"/>
          </g>
          <g>
            <polygon class="cls-3" points="162.22 247.14 184.82 230.18 184.82 222.96 188.9 219.91 193.19 219.3 198.06 221.39 199.12 227.35 202.91 228.92 205.32 232.11 205.84 236.23 203.65 240.43 198.06 241.57 192.77 240.01 169.86 257.51 170.07 263.86 166.35 267.26 162.22 268.57 157.52 265.32 156.26 260.2 153.33 258.94 149.67 254.87 149.67 249.42 153.02 245.81 157.52 245.34 162.22 247.14"/>
            <path class="cls-2" d="M192.62,219.97c.14.02.27.04.41.07,2.78.57,5.07,3.49,4.99,6.35-.01.49-.08.97-.2,1.42-.06.23.1.46.33.49.02,0,.05,0,.07,0,.38-.02.77,0,1.16.05.19.03.38.06.57.11,3.01.71,5.07,3.58,4.81,6.69-.31,3.65-3.58,6.25-7.13,5.75-1.58-.22-2.95-1.02-3.91-2.16-.1-.12-.23-.19-.37-.21s-.3.01-.42.11l-24.27,18.3c-.24.18-.29.51-.13.76.74,1.2,1.08,2.65.87,4.16-.48,3.41-3.6,5.79-6.97,5.32-.13-.02-.27-.04-.4-.07-2.9-.6-4.99-3.26-4.9-6.25.02-.52.09-1.03.22-1.5.05-.18-.07-.36-.25-.39-.02,0-.04,0-.06,0-.41.03-.83.01-1.25-.04-3.52-.49-5.92-3.89-5.17-7.46.63-3.03,3.44-5.15,6.49-4.93.14.01.27.02.41.04,1.49.21,2.78.94,3.72,1.98.1.11.22.17.36.19.15.02.3-.01.42-.11l24.27-18.31c.24-.18.29-.51.14-.76-.74-1.21-1.08-2.68-.87-4.21.48-3.47,3.66-5.89,7.09-5.41M192.91,217.95h0c-2.2-.31-4.4.27-6.17,1.62-1.77,1.35-2.92,3.31-3.22,5.53-.21,1.48-.01,2.99.55,4.36l-22.31,16.81c-1.14-.91-2.51-1.5-3.96-1.71-.18-.02-.36-.04-.54-.06-4.08-.3-7.8,2.52-8.64,6.55-.47,2.26,0,4.63,1.33,6.5,1.22,1.74,3.08,2.94,5.14,3.34-.04,1.9.59,3.76,1.77,5.27,1.2,1.53,2.89,2.58,4.77,2.97.18.04.36.07.53.09,4.49.63,8.65-2.54,9.29-7.07.21-1.47.01-2.97-.55-4.32l22.26-16.77c1.19,1.01,2.64,1.66,4.2,1.88,2.27.32,4.51-.3,6.32-1.73,1.82-1.45,2.93-3.54,3.13-5.87.35-4.11-2.39-7.92-6.38-8.86-.12-.03-.23-.05-.35-.07.09-3.85-2.87-7.59-6.62-8.37-.18-.04-.36-.07-.54-.09h0Z"/>
            <path class="cls-2" d="M199.26,250.74c.58.08.98.61.9,1.19s-.61.98-1.19.9-.98-.61-.9-1.19.61-.98,1.19-.9M199.54,248.72c-1.69-.24-3.25.95-3.49,2.63-.24,1.69.95,3.25,2.63,3.49s3.25-.95,3.49-2.63c.24-1.69-.95-3.25-2.63-3.49h0Z"/>
            <path class="cls-2" d="M182.68,271.74c-.27-.04-.52-.18-.69-.42l-2.46-3.45c-.33-.46-.22-1.1.24-1.43.46-.33,1.1-.22,1.43.24l2.46,3.45c.33.46.22,1.1-.24,1.43-.22.16-.49.21-.74.18Z"/>
            <path class="cls-2" d="M179.71,271.3c-.27-.04-.52-.18-.69-.42-.33-.46-.22-1.1.24-1.43l3.45-2.46c.46-.33,1.1-.22,1.43.24s.22,1.1-.24,1.43l-3.45,2.46c-.22.16-.49.21-.74.18Z"/>
            <path class="cls-2" d="M169.78,220.81c-.27-.04-.52-.18-.69-.42l-2.46-3.45c-.33-.46-.22-1.1.24-1.43.46-.33,1.1-.22,1.43.24l2.46,3.45c.33.46.22,1.1-.24,1.43-.22.16-.49.21-.74.18Z"/>
            <path class="cls-2" d="M166.82,220.37c-.27-.04-.52-.18-.69-.42-.33-.46-.22-1.1.24-1.43l3.45-2.46c.46-.33,1.1-.22,1.43.24.33.46.22,1.1-.24,1.43l-3.45,2.46c-.22.16-.49.21-.74.18Z"/>
            <path class="cls-2" d="M186.16,257.5c-.26-.04-.51-.18-.68-.41l-2.96-4c-.34-.45-.24-1.1.21-1.43.45-.34,1.1-.24,1.43.21l2.96,4c.34.45.24,1.1-.21,1.43-.22.17-.49.23-.75.19Z"/>
            <path class="cls-2" d="M179.55,258.19c-.56-.08-.95-.6-.87-1.16l.45-3.21c.08-.56.6-.95,1.16-.87s.95.6.87,1.16l-.45,3.21c-.08.56-.6.95-1.16.87Z"/>
            <path class="cls-2" d="M188.83,251.38l-3.21-.45c-.56-.08-.95-.6-.87-1.16s.6-.95,1.16-.87l3.21.45c.56.08.95.6.87,1.16s-.6.95-1.16.87Z"/>
            <path class="cls-2" d="M170.23,236.22c-.26-.04-.51-.18-.68-.41l-2.96-4c-.34-.45-.24-1.1.21-1.43.46-.34,1.1-.24,1.43.21l2.96,4c.34.45.24,1.1-.21,1.43-.22.17-.49.23-.75.19Z"/>
            <path class="cls-2" d="M173.43,234.73c-.56-.08-.95-.6-.87-1.16l.45-3.21c.08-.56.6-.95,1.16-.87s.95.6.87,1.16l-.45,3.21c-.08.56-.6.95-1.16.87Z"/>
            <path class="cls-2" d="M167.82,238.78l-3.21-.45c-.56-.08-.95-.6-.87-1.16s.6-.95,1.16-.87l3.21.45c.56.08.95.6.87,1.16s-.6.95-1.16.87Z"/>
            <path class="cls-2" d="M176.28,237.79c4.38-.09,8.68,1.52,11.89,4.5.97.9,2.42-.55,1.45-1.45-3.6-3.34-8.42-5.21-13.34-5.1-1.32.03-1.32,2.08,0,2.05h0Z"/>
            <path class="cls-2" d="M168.9,243.36c4.38-.09,8.68,1.52,11.89,4.5.97.9,2.42-.55,1.45-1.45-3.6-3.34-8.42-5.21-13.34-5.1-1.32.03-1.32,2.08,0,2.05h0Z"/>
            <path class="cls-2" d="M173.48,244.23c.87,2.89,1.23,5.97.3,8.9-.4,1.26,1.58,1.8,1.98.54,1.04-3.25.68-6.76-.3-9.99-.38-1.26-2.36-.72-1.98.54h0Z"/>
          </g>
          <g>
            <polygon class="cls-3" points="8.43 283.66 31.03 266.7 31.03 259.48 35.11 256.43 39.39 255.82 44.27 257.91 45.32 263.87 49.12 265.44 51.52 268.63 52.05 272.75 49.85 276.95 44.27 278.09 38.97 276.53 16.06 294.02 16.27 300.38 12.56 303.78 8.43 305.09 3.72 301.84 2.46 296.72 -.46 295.46 -4.13 291.39 -4.13 285.94 -.78 282.33 3.72 281.86 8.43 283.66"/>
            <path class="cls-2" d="M38.83,256.49c.14.02.27.04.41.07,2.78.57,5.07,3.49,4.99,6.35-.01.49-.08.97-.2,1.42-.06.23.1.46.33.49.02,0,.05,0,.07,0,.38-.02.77,0,1.16.05.19.03.38.06.57.11,3.01.71,5.07,3.58,4.81,6.69-.31,3.65-3.58,6.25-7.13,5.75-1.58-.22-2.95-1.02-3.91-2.16-.1-.12-.23-.19-.37-.21s-.3.01-.42.11l-24.27,18.3c-.24.18-.29.51-.13.76.74,1.2,1.08,2.65.87,4.16-.48,3.41-3.6,5.79-6.97,5.32-.13-.02-.27-.04-.4-.07-2.9-.6-4.99-3.26-4.9-6.25.02-.52.09-1.03.22-1.5.05-.18-.07-.36-.25-.39-.02,0-.04,0-.06,0-.41.03-.83.01-1.25-.04-3.52-.49-5.92-3.89-5.17-7.46.63-3.03,3.44-5.15,6.49-4.93.14.01.27.02.41.04,1.49.21,2.78.94,3.72,1.98.1.11.22.17.36.19.15.02.3-.01.42-.11l24.27-18.31c.24-.18.29-.51.14-.76-.74-1.21-1.08-2.68-.87-4.21.48-3.47,3.66-5.89,7.09-5.41M39.11,254.46h0c-2.2-.31-4.4.27-6.17,1.62-1.77,1.35-2.92,3.31-3.22,5.53-.21,1.48-.01,2.99.55,4.36l-22.31,16.81c-1.14-.91-2.51-1.5-3.96-1.71-.18-.02-.36-.04-.54-.06-4.08-.3-7.8,2.52-8.64,6.55-.47,2.26,0,4.63,1.33,6.5,1.22,1.74,3.08,2.94,5.14,3.34-.04,1.9.59,3.76,1.77,5.27,1.2,1.53,2.89,2.58,4.77,2.97.18.04.36.07.53.09,4.49.63,8.65-2.54,9.29-7.07.21-1.47.01-2.97-.55-4.32l22.26-16.77c1.19,1.01,2.64,1.66,4.2,1.88,2.27.32,4.51-.3,6.32-1.73,1.82-1.45,2.93-3.54,3.13-5.87.35-4.11-2.39-7.92-6.38-8.86-.12-.03-.23-.05-.35-.07.09-3.85-2.87-7.59-6.62-8.37-.18-.04-.36-.07-.54-.09h0Z"/>
            <path class="cls-2" d="M45.47,287.26c.58.08.98.61.9,1.19s-.61.98-1.19.9-.98-.61-.9-1.19.61-.98,1.19-.9M45.75,285.24c-1.69-.24-3.25.95-3.49,2.63-.24,1.69.95,3.25,2.63,3.49s3.25-.95,3.49-2.63c.24-1.69-.95-3.25-2.63-3.49h0Z"/>
            <path class="cls-2" d="M28.88,308.25c-.27-.04-.52-.18-.69-.42l-2.46-3.45c-.33-.46-.22-1.1.24-1.43.46-.33,1.1-.22,1.43.24l2.46,3.45c.33.46.22,1.1-.24,1.43-.22.16-.49.21-.74.18Z"/>
            <path class="cls-2" d="M25.92,307.82c-.27-.04-.52-.18-.69-.42-.33-.46-.22-1.1.24-1.43l3.45-2.46c.46-.33,1.1-.22,1.43.24s.22,1.1-.24,1.43l-3.45,2.46c-.22.16-.49.21-.74.18Z"/>
            <path class="cls-2" d="M15.99,257.33c-.27-.04-.52-.18-.69-.42l-2.46-3.45c-.33-.46-.22-1.1.24-1.43.46-.33,1.1-.22,1.43.24l2.46,3.45c.33.46.22,1.1-.24,1.43-.22.16-.49.21-.74.18Z"/>
            <path class="cls-2" d="M13.02,256.89c-.27-.04-.52-.18-.69-.42-.33-.46-.22-1.1.24-1.43l3.45-2.46c.46-.33,1.1-.22,1.43.24.33.46.22,1.1-.24,1.43l-3.45,2.46c-.22.16-.49.21-.74.18Z"/>
            <path class="cls-2" d="M32.36,294.02c-.26-.04-.51-.18-.68-.41l-2.96-4c-.34-.45-.24-1.1.21-1.43.45-.34,1.1-.24,1.43.21l2.96,4c.34.45.24,1.1-.21,1.43-.22.17-.49.23-.75.19Z"/>
            <path class="cls-2" d="M25.75,294.71c-.56-.08-.95-.6-.87-1.16l.45-3.21c.08-.56.6-.95,1.16-.87s.95.6.87,1.16l-.45,3.21c-.08.56-.6.95-1.16.87Z"/>
            <path class="cls-2" d="M35.03,287.9l-3.21-.45c-.56-.08-.95-.6-.87-1.16s.6-.95,1.16-.87l3.21.45c.56.08.95.6.87,1.16-.08.56-.6.95-1.16.87Z"/>
            <path class="cls-2" d="M16.44,272.74c-.26-.04-.51-.18-.68-.41l-2.96-4c-.34-.45-.24-1.1.21-1.43.46-.34,1.1-.24,1.43.21l2.96,4c.34.45.24,1.1-.21,1.43-.22.17-.49.23-.75.19Z"/>
            <path class="cls-2" d="M19.64,271.25c-.56-.08-.95-.6-.87-1.16l.45-3.21c.08-.56.6-.95,1.16-.87s.95.6.87,1.16l-.45,3.21c-.08.56-.6.95-1.16.87Z"/>
            <path class="cls-2" d="M14.02,275.3l-3.21-.45c-.56-.08-.95-.6-.87-1.16s.6-.95,1.16-.87l3.21.45c.56.08.95.6.87,1.16s-.6.95-1.16.87Z"/>
            <path class="cls-2" d="M22.49,274.31c4.38-.09,8.68,1.52,11.89,4.5.97.9,2.42-.55,1.45-1.45-3.6-3.34-8.42-5.21-13.34-5.1-1.32.03-1.32,2.08,0,2.05h0Z"/>
            <path class="cls-2" d="M15.11,279.88c4.38-.09,8.68,1.52,11.89,4.5.97.9,2.42-.55,1.45-1.45-3.6-3.34-8.42-5.21-13.34-5.1-1.32.03-1.32,2.08,0,2.05h0Z"/>
            <path class="cls-2" d="M19.68,280.75c.87,2.89,1.23,5.97.3,8.9-.4,1.26,1.58,1.8,1.98.54,1.04-3.25.68-6.76-.3-9.99-.38-1.26-2.36-.72-1.98.54h0Z"/>
          </g>
          <g>
            <polygon class="cls-3" points="83.86 297.63 106.46 280.67 106.46 273.45 110.54 270.41 114.82 269.79 119.7 271.88 120.76 277.84 124.55 279.41 126.96 282.6 127.48 286.72 125.28 290.92 119.7 292.06 114.41 290.5 91.5 308 91.71 314.35 87.99 317.75 83.86 319.06 79.15 315.82 77.9 310.69 74.97 309.44 71.31 305.37 71.31 299.92 74.66 296.3 79.15 295.84 83.86 297.63"/>
            <path class="cls-2" d="M114.26,270.47c.14.02.27.04.41.07,2.78.57,5.07,3.49,4.99,6.35-.01.49-.08.97-.2,1.42-.06.23.1.46.33.49.02,0,.05,0,.07,0,.38-.02.77,0,1.16.05.19.03.38.06.57.11,3.01.71,5.07,3.58,4.81,6.69-.31,3.65-3.58,6.25-7.13,5.75-1.58-.22-2.95-1.02-3.91-2.16-.1-.12-.23-.19-.37-.21s-.3.01-.42.11l-24.27,18.3c-.24.18-.29.51-.13.76.74,1.2,1.08,2.65.87,4.16-.48,3.41-3.6,5.79-6.97,5.32-.13-.02-.27-.04-.4-.07-2.9-.6-4.99-3.26-4.9-6.25.02-.52.09-1.03.22-1.5.05-.18-.07-.36-.25-.39-.02,0-.04,0-.06,0-.41.03-.83.01-1.25-.04-3.52-.49-5.92-3.89-5.17-7.46.63-3.03,3.44-5.15,6.49-4.93.14.01.27.02.41.04,1.49.21,2.78.94,3.72,1.98.1.11.22.17.36.19.15.02.3-.01.42-.11l24.27-18.31c.24-.18.29-.51.14-.76-.74-1.21-1.08-2.68-.87-4.21.48-3.47,3.66-5.89,7.09-5.41M114.55,268.44h0c-2.2-.31-4.4.27-6.17,1.62-1.77,1.35-2.92,3.31-3.22,5.53-.21,1.48-.01,2.99.55,4.36l-22.31,16.81c-1.14-.91-2.51-1.5-3.96-1.71-.18-.02-.36-.04-.54-.06-4.08-.3-7.8,2.52-8.64,6.55-.47,2.26,0,4.63,1.33,6.5,1.22,1.74,3.08,2.94,5.14,3.34-.04,1.9.59,3.76,1.77,5.27,1.2,1.53,2.89,2.58,4.77,2.97.18.04.36.07.53.09,4.49.63,8.65-2.54,9.29-7.07.21-1.47.01-2.97-.55-4.32l22.26-16.77c1.19,1.01,2.64,1.66,4.2,1.88,2.27.32,4.51-.3,6.32-1.73,1.82-1.45,2.93-3.54,3.13-5.87.35-4.11-2.39-7.92-6.38-8.86-.12-.03-.23-.05-.35-.07.09-3.85-2.87-7.59-6.62-8.37-.18-.04-.36-.07-.54-.09h0Z"/>
            <path class="cls-2" d="M120.9,301.23c.58.08.98.61.9,1.19s-.61.98-1.19.9-.98-.61-.9-1.19.61-.98,1.19-.9M121.18,299.22c-1.69-.24-3.25.95-3.49,2.63s.95,3.25,2.63,3.49,3.25-.95,3.49-2.63-.95-3.25-2.63-3.49h0Z"/>
            <path class="cls-2" d="M104.32,322.23c-.27-.04-.52-.18-.69-.42l-2.46-3.45c-.33-.46-.22-1.1.24-1.43.46-.33,1.1-.22,1.43.24l2.46,3.45c.33.46.22,1.1-.24,1.43-.22.16-.49.21-.74.18Z"/>
            <path class="cls-2" d="M101.35,321.79c-.27-.04-.52-.18-.69-.42-.33-.46-.22-1.1.24-1.43l3.45-2.46c.46-.33,1.1-.22,1.43.24s.22,1.1-.24,1.43l-3.45,2.46c-.22.16-.49.21-.74.18Z"/>
            <path class="cls-2" d="M91.42,271.3c-.27-.04-.52-.18-.69-.42l-2.46-3.45c-.33-.46-.22-1.1.24-1.43.46-.33,1.1-.22,1.43.24l2.46,3.45c.33.46.22,1.1-.24,1.43-.22.16-.49.21-.74.18Z"/>
            <path class="cls-2" d="M88.46,270.87c-.27-.04-.52-.18-.69-.42-.33-.46-.22-1.1.24-1.43l3.45-2.46c.46-.33,1.1-.22,1.43.24.33.46.22,1.1-.24,1.43l-3.45,2.46c-.22.16-.49.21-.74.18Z"/>
            <path class="cls-2" d="M107.8,307.99c-.26-.04-.51-.18-.68-.41l-2.96-4c-.34-.45-.24-1.1.21-1.43.45-.34,1.1-.24,1.43.21l2.96,4c.34.45.24,1.1-.21,1.43-.22.17-.49.23-.75.19Z"/>
            <path class="cls-2" d="M101.19,308.68c-.56-.08-.95-.6-.87-1.16l.45-3.21c.08-.56.6-.95,1.16-.87s.95.6.87,1.16l-.45,3.21c-.08.56-.6.95-1.16.87Z"/>
            <path class="cls-2" d="M110.47,301.87l-3.21-.45c-.56-.08-.95-.6-.87-1.16s.6-.95,1.16-.87l3.21.45c.56.08.95.6.87,1.16s-.6.95-1.16.87Z"/>
            <path class="cls-2" d="M91.87,286.71c-.26-.04-.51-.18-.68-.41l-2.96-4c-.34-.45-.24-1.1.21-1.43.46-.34,1.1-.24,1.43.21l2.96,4c.34.45.24,1.1-.21,1.43-.22.17-.49.23-.75.19Z"/>
            <path class="cls-2" d="M95.07,285.22c-.56-.08-.95-.6-.87-1.16l.45-3.21c.08-.56.6-.95,1.16-.87s.95.6.87,1.16l-.45,3.21c-.08.56-.6.95-1.16.87Z"/>
            <path class="cls-2" d="M89.46,289.27l-3.21-.45c-.56-.08-.95-.6-.87-1.16s.6-.95,1.16-.87l3.21.45c.56.08.95.6.87,1.16s-.6.95-1.16.87Z"/>
            <path class="cls-2" d="M97.92,288.28c4.38-.09,8.68,1.52,11.89,4.5.97.9,2.42-.55,1.45-1.45-3.6-3.34-8.42-5.21-13.34-5.1-1.32.03-1.32,2.08,0,2.05h0Z"/>
            <path class="cls-2" d="M90.54,293.85c4.38-.09,8.68,1.52,11.89,4.5.97.9,2.42-.55,1.45-1.45-3.6-3.34-8.42-5.21-13.34-5.1-1.32.03-1.32,2.08,0,2.05h0Z"/>
            <path class="cls-2" d="M95.12,294.73c.87,2.89,1.23,5.97.3,8.9-.4,1.26,1.58,1.8,1.98.54,1.04-3.25.68-6.76-.3-9.99-.38-1.26-2.36-.72-1.98.54h0Z"/>
          </g>
          <g>
            <polygon class="cls-3" points="159.29 311.61 181.89 294.64 181.89 287.42 185.97 284.38 190.26 283.76 195.13 285.86 196.19 291.82 199.99 293.39 202.39 296.58 202.92 300.7 200.72 304.89 195.13 306.03 189.84 304.47 166.93 321.97 167.14 328.32 163.42 331.73 159.29 333.03 154.59 329.79 153.33 324.66 150.4 323.41 146.74 319.34 146.74 313.89 150.09 310.27 154.59 309.81 159.29 311.61"/>
            <path class="cls-2" d="M189.7,284.44c.14.02.27.04.41.07,2.78.57,5.07,3.49,4.99,6.35-.01.49-.08.97-.2,1.42-.06.23.1.46.33.49.02,0,.05,0,.07,0,.38-.02.77,0,1.16.05.19.03.38.06.57.11,3.01.71,5.07,3.58,4.81,6.69-.31,3.65-3.58,6.25-7.13,5.75-1.58-.22-2.95-1.02-3.91-2.16-.1-.12-.23-.19-.37-.21s-.3.01-.42.11l-24.27,18.3c-.24.18-.29.51-.13.76.74,1.2,1.08,2.65.87,4.16-.48,3.41-3.6,5.79-6.97,5.32-.13-.02-.27-.04-.4-.07-2.9-.6-4.99-3.26-4.9-6.25.02-.52.09-1.03.22-1.5.05-.18-.07-.36-.25-.39-.02,0-.04,0-.06,0-.41.03-.83.01-1.25-.04-3.52-.49-5.92-3.89-5.17-7.46.63-3.03,3.44-5.15,6.49-4.93.14.01.27.02.41.04,1.49.21,2.78.94,3.72,1.98.1.11.22.17.36.19.15.02.3-.01.42-.11l24.27-18.31c.24-.18.29-.51.14-.76-.74-1.21-1.08-2.68-.87-4.21.48-3.47,3.66-5.89,7.09-5.41M189.98,282.41h0c-2.2-.31-4.4.27-6.17,1.62-1.77,1.35-2.92,3.31-3.22,5.53-.21,1.48-.01,2.99.55,4.36l-22.31,16.81c-1.14-.91-2.51-1.5-3.96-1.71-.18-.02-.36-.04-.54-.06-4.08-.3-7.8,2.52-8.64,6.55-.47,2.26,0,4.63,1.33,6.5,1.22,1.74,3.08,2.94,5.14,3.34-.04,1.9.59,3.76,1.77,5.27,1.2,1.53,2.89,2.58,4.77,2.97.18.04.36.07.53.09,4.49.63,8.65-2.54,9.29-7.07.21-1.47.01-2.97-.55-4.32l22.26-16.77c1.19,1.01,2.64,1.66,4.2,1.88,2.27.32,4.51-.3,6.32-1.73,1.82-1.45,2.93-3.54,3.13-5.87.35-4.11-2.39-7.92-6.38-8.86-.12-.03-.23-.05-.35-.07.09-3.85-2.87-7.59-6.62-8.37-.18-.04-.36-.07-.54-.09h0Z"/>
            <path class="cls-2" d="M196.33,315.21c.58.08.98.61.9,1.19s-.61.98-1.19.9-.98-.61-.9-1.19.61-.98,1.19-.9M196.62,313.19c-1.69-.24-3.25.95-3.49,2.63s.95,3.25,2.63,3.49,3.25-.95,3.49-2.63-.95-3.25-2.63-3.49h0Z"/>
            <path class="cls-2" d="M179.75,336.2c-.27-.04-.52-.18-.69-.42l-2.46-3.45c-.33-.46-.22-1.1.24-1.43.46-.33,1.1-.22,1.43.24l2.46,3.45c.33.46.22,1.1-.24,1.43-.22.16-.49.21-.74.18Z"/>
            <path class="cls-2" d="M176.79,335.76c-.27-.04-.52-.18-.69-.42-.33-.46-.22-1.1.24-1.43l3.45-2.46c.46-.33,1.1-.22,1.43.24s.22,1.1-.24,1.43l-3.45,2.46c-.22.16-.49.21-.74.18Z"/>
            <path class="cls-2" d="M166.86,285.28c-.27-.04-.52-.18-.69-.42l-2.46-3.45c-.33-.46-.22-1.1.24-1.43.46-.33,1.1-.22,1.43.24l2.46,3.45c.33.46.22,1.1-.24,1.43-.22.16-.49.21-.74.18Z"/>
            <path class="cls-2" d="M163.89,284.84c-.27-.04-.52-.18-.69-.42-.33-.46-.22-1.1.24-1.43l3.45-2.46c.46-.33,1.1-.22,1.43.24.33.46.22,1.1-.24,1.43l-3.45,2.46c-.22.16-.49.21-.74.18Z"/>
            <path class="cls-2" d="M183.23,321.96c-.26-.04-.51-.18-.68-.41l-2.96-4c-.34-.45-.24-1.1.21-1.43.45-.34,1.1-.24,1.43.21l2.96,4c.34.45.24,1.1-.21,1.43-.22.17-.49.23-.75.19Z"/>
            <path class="cls-2" d="M176.62,322.66c-.56-.08-.95-.6-.87-1.16l.45-3.21c.08-.56.6-.95,1.16-.87s.95.6.87,1.16l-.45,3.21c-.08.56-.6.95-1.16.87Z"/>
            <path class="cls-2" d="M185.9,315.85l-3.21-.45c-.56-.08-.95-.6-.87-1.16s.6-.95,1.16-.87l3.21.45c.56.08.95.6.87,1.16s-.6.95-1.16.87Z"/>
            <path class="cls-2" d="M167.31,300.69c-.26-.04-.51-.18-.68-.41l-2.96-4c-.34-.45-.24-1.1.21-1.43.46-.34,1.1-.24,1.43.21l2.96,4c.34.45.24,1.1-.21,1.43-.22.17-.49.23-.75.19Z"/>
            <path class="cls-2" d="M170.51,299.2c-.56-.08-.95-.6-.87-1.16l.45-3.21c.08-.56.6-.95,1.16-.87s.95.6.87,1.16l-.45,3.21c-.08.56-.6.95-1.16.87Z"/>
            <path class="cls-2" d="M164.89,303.24l-3.21-.45c-.56-.08-.95-.6-.87-1.16s.6-.95,1.16-.87l3.21.45c.56.08.95.6.87,1.16s-.6.95-1.16.87Z"/>
            <path class="cls-2" d="M173.36,302.25c4.38-.09,8.68,1.52,11.89,4.5.97.9,2.42-.55,1.45-1.45-3.6-3.34-8.42-5.21-13.34-5.1-1.32.03-1.32,2.08,0,2.05h0Z"/>
            <path class="cls-2" d="M165.97,307.83c4.38-.09,8.68,1.52,11.89,4.5.97.9,2.42-.55,1.45-1.45-3.6-3.34-8.42-5.21-13.34-5.1-1.32.03-1.32,2.08,0,2.05h0Z"/>
            <path class="cls-2" d="M170.55,308.7c.87,2.89,1.23,5.97.3,8.9-.4,1.26,1.58,1.8,1.98.54,1.04-3.25.68-6.76-.3-9.99-.38-1.26-2.36-.72-1.98.54h0Z"/>
          </g>
          <g>
            <polygon class="cls-3" points="5.5 348.13 28.1 331.16 28.1 323.94 32.18 320.9 36.46 320.28 41.34 322.37 42.39 328.34 46.19 329.91 48.6 333.1 49.12 337.22 46.92 341.41 41.34 342.55 36.04 340.99 13.14 358.49 13.35 364.84 9.63 368.25 5.5 369.55 .79 366.31 -.46 361.18 -3.39 359.93 -7.05 355.86 -7.05 350.41 -3.71 346.79 .79 346.33 5.5 348.13"/>
            <path class="cls-2" d="M35.9,320.96c.14.02.27.04.41.07,2.78.57,5.07,3.49,4.99,6.35-.01.49-.08.97-.2,1.42-.06.23.1.46.33.49.02,0,.05,0,.07,0,.38-.02.77,0,1.16.05.19.03.38.06.57.11,3.01.71,5.07,3.58,4.81,6.69-.31,3.65-3.58,6.25-7.13,5.75-1.58-.22-2.95-1.02-3.91-2.16-.1-.12-.23-.19-.37-.21s-.3.01-.42.11l-24.27,18.3c-.24.18-.29.51-.13.76.74,1.2,1.08,2.65.87,4.16-.48,3.41-3.6,5.79-6.97,5.32-.13-.02-.27-.04-.4-.07-2.9-.6-4.99-3.26-4.9-6.25.02-.52.09-1.03.22-1.5.05-.18-.07-.36-.25-.39-.02,0-.04,0-.06,0-.41.03-.83.01-1.25-.04-3.52-.49-5.92-3.89-5.17-7.46.63-3.03,3.44-5.15,6.49-4.93.14.01.27.02.41.04,1.49.21,2.78.94,3.72,1.98.1.11.22.17.36.19.15.02.3-.01.42-.11l24.27-18.31c.24-.18.29-.51.14-.76-.74-1.21-1.08-2.68-.87-4.21.48-3.47,3.66-5.89,7.09-5.41M36.18,318.93h0c-2.2-.31-4.4.27-6.17,1.62-1.77,1.35-2.92,3.31-3.22,5.53-.21,1.48-.01,2.99.55,4.36l-22.31,16.81c-1.14-.91-2.51-1.5-3.96-1.71-.18-.02-.36-.04-.54-.06-4.08-.3-7.8,2.52-8.64,6.55-.47,2.26,0,4.63,1.33,6.5,1.22,1.74,3.08,2.94,5.14,3.34-.04,1.9.59,3.76,1.77,5.27,1.2,1.53,2.89,2.58,4.77,2.97.18.04.36.07.53.09,4.49.63,8.65-2.54,9.29-7.07.21-1.47.01-2.97-.55-4.32l22.26-16.77c1.19,1.01,2.64,1.66,4.2,1.88,2.27.32,4.51-.3,6.32-1.73,1.82-1.45,2.93-3.54,3.13-5.87.35-4.11-2.39-7.92-6.38-8.86-.12-.03-.23-.05-.35-.07.09-3.85-2.87-7.59-6.62-8.37-.18-.04-.36-.07-.54-.09h0Z"/>
            <path class="cls-2" d="M42.54,351.72c.58.08.98.61.9,1.19s-.61.98-1.19.9-.98-.61-.9-1.19.61-.98,1.19-.9M42.82,349.71c-1.69-.24-3.25.95-3.49,2.63s.95,3.25,2.63,3.49,3.25-.95,3.49-2.63-.95-3.25-2.63-3.49h0Z"/>
            <path class="cls-2" d="M25.96,372.72c-.27-.04-.52-.18-.69-.42l-2.46-3.45c-.33-.46-.22-1.1.24-1.43.46-.33,1.1-.22,1.43.24l2.46,3.45c.33.46.22,1.1-.24,1.43-.22.16-.49.21-.74.18Z"/>
            <path class="cls-2" d="M22.99,372.28c-.27-.04-.52-.18-.69-.42-.33-.46-.22-1.1.24-1.43l3.45-2.46c.46-.33,1.1-.22,1.43.24s.22,1.1-.24,1.43l-3.45,2.46c-.22.16-.49.21-.74.18Z"/>
            <path class="cls-2" d="M13.06,321.8c-.27-.04-.52-.18-.69-.42l-2.46-3.45c-.33-.46-.22-1.1.24-1.43.46-.33,1.1-.22,1.43.24l2.46,3.45c.33.46.22,1.1-.24,1.43-.22.16-.49.21-.74.18Z"/>
            <path class="cls-2" d="M10.1,321.36c-.27-.04-.52-.18-.69-.42-.33-.46-.22-1.1.24-1.43l3.45-2.46c.46-.33,1.1-.22,1.43.24.33.46.22,1.1-.24,1.43l-3.45,2.46c-.22.16-.49.21-.74.18Z"/>
            <path class="cls-2" d="M29.44,358.48c-.26-.04-.51-.18-.68-.41l-2.96-4c-.34-.45-.24-1.1.21-1.43.45-.34,1.1-.24,1.43.21l2.96,4c.34.45.24,1.1-.21,1.43-.22.17-.49.23-.75.19Z"/>
            <path class="cls-2" d="M22.83,359.18c-.56-.08-.95-.6-.87-1.16l.45-3.21c.08-.56.6-.95,1.16-.87s.95.6.87,1.16l-.45,3.21c-.08.56-.6.95-1.16.87Z"/>
            <path class="cls-2" d="M32.1,352.37l-3.21-.45c-.56-.08-.95-.6-.87-1.16s.6-.95,1.16-.87l3.21.45c.56.08.95.6.87,1.16s-.6.95-1.16.87Z"/>
            <path class="cls-2" d="M13.51,337.21c-.26-.04-.51-.18-.68-.41l-2.96-4c-.34-.45-.24-1.1.21-1.43.46-.34,1.1-.24,1.43.21l2.96,4c.34.45.24,1.1-.21,1.43-.22.17-.49.23-.75.19Z"/>
            <path class="cls-2" d="M16.71,335.72c-.56-.08-.95-.6-.87-1.16l.45-3.21c.08-.56.6-.95,1.16-.87s.95.6.87,1.16l-.45,3.21c-.08.56-.6.95-1.16.87Z"/>
            <path class="cls-2" d="M11.09,339.76l-3.21-.45c-.56-.08-.95-.6-.87-1.16s.6-.95,1.16-.87l3.21.45c.56.08.95.6.87,1.16s-.6.95-1.16.87Z"/>
            <path class="cls-2" d="M19.56,338.77c4.38-.09,8.68,1.52,11.89,4.5.97.9,2.42-.55,1.45-1.45-3.6-3.34-8.42-5.21-13.34-5.1-1.32.03-1.32,2.08,0,2.05h0Z"/>
            <path class="cls-2" d="M12.18,344.35c4.38-.09,8.68,1.52,11.89,4.5.97.9,2.42-.55,1.45-1.45-3.6-3.34-8.42-5.21-13.34-5.1-1.32.03-1.32,2.08,0,2.05h0Z"/>
            <path class="cls-2" d="M16.76,345.22c.87,2.89,1.23,5.97.3,8.9-.4,1.26,1.58,1.8,1.98.54,1.04-3.25.68-6.76-.3-9.99-.38-1.26-2.36-.72-1.98.54h0Z"/>
          </g>
          <g>
            <polygon class="cls-3" points="80.93 362.1 103.53 345.14 103.53 337.92 107.61 334.87 111.9 334.26 116.77 336.35 117.83 342.31 121.63 343.88 124.03 347.07 124.55 351.19 122.36 355.39 116.77 356.53 111.48 354.97 88.57 372.46 88.78 378.82 85.06 382.22 80.93 383.52 76.23 380.28 74.97 375.16 72.04 373.9 68.38 369.83 68.38 364.38 71.73 360.77 76.23 360.3 80.93 362.1"/>
            <path class="cls-2" d="M111.33,334.93c.14.02.27.04.41.07,2.78.57,5.07,3.49,4.99,6.35-.01.49-.08.97-.2,1.42-.06.23.1.46.33.49.02,0,.05,0,.07,0,.38-.02.77,0,1.16.05.19.03.38.06.57.11,3.01.71,5.07,3.58,4.81,6.69-.31,3.65-3.58,6.25-7.13,5.75-1.58-.22-2.95-1.02-3.91-2.16-.1-.12-.23-.19-.37-.21s-.3.01-.42.11l-24.27,18.3c-.24.18-.29.51-.13.76.74,1.2,1.08,2.65.87,4.16-.48,3.41-3.6,5.79-6.97,5.32-.13-.02-.27-.04-.4-.07-2.9-.6-4.99-3.26-4.9-6.25.02-.52.09-1.03.22-1.5.05-.18-.07-.36-.25-.39-.02,0-.04,0-.06,0-.41.03-.83.01-1.25-.04-3.52-.49-5.92-3.89-5.17-7.46.63-3.03,3.44-5.15,6.49-4.93.14.01.27.02.41.04,1.49.21,2.78.94,3.72,1.98.1.11.22.17.36.19.15.02.3-.01.42-.11l24.27-18.31c.24-.18.29-.51.14-.76-.74-1.21-1.08-2.68-.87-4.21.48-3.47,3.66-5.89,7.09-5.41M111.62,332.9h0c-2.2-.31-4.4.27-6.17,1.62-1.77,1.35-2.92,3.31-3.22,5.53-.21,1.48-.01,2.99.55,4.36l-22.31,16.81c-1.14-.91-2.51-1.5-3.96-1.71-.18-.02-.36-.04-.54-.06-4.08-.3-7.8,2.52-8.64,6.55-.47,2.26,0,4.63,1.33,6.5,1.22,1.74,3.08,2.94,5.14,3.34-.04,1.9.59,3.76,1.77,5.27,1.2,1.53,2.89,2.58,4.77,2.97.18.04.36.07.53.09,4.49.63,8.65-2.54,9.29-7.07.21-1.47.01-2.97-.55-4.32l22.26-16.77c1.19,1.01,2.64,1.66,4.2,1.88,2.27.32,4.51-.3,6.32-1.73,1.82-1.45,2.93-3.54,3.13-5.87.35-4.11-2.39-7.92-6.38-8.86-.12-.03-.23-.05-.35-.07.09-3.85-2.87-7.59-6.62-8.37-.18-.04-.36-.07-.54-.09h0Z"/>
            <path class="cls-2" d="M117.97,365.7c.58.08.98.61.9,1.19s-.61.98-1.19.9-.98-.61-.9-1.19.61-.98,1.19-.9M118.25,363.68c-1.69-.24-3.25.95-3.49,2.63s.95,3.25,2.63,3.49,3.25-.95,3.49-2.63-.95-3.25-2.63-3.49h0Z"/>
            <path class="cls-2" d="M101.39,386.69c-.27-.04-.52-.18-.69-.42l-2.46-3.45c-.33-.46-.22-1.1.24-1.43.46-.33,1.1-.22,1.43.24l2.46,3.45c.33.46.22,1.1-.24,1.43-.22.16-.49.21-.74.18Z"/>
            <path class="cls-2" d="M98.43,386.26c-.27-.04-.52-.18-.69-.42-.33-.46-.22-1.1.24-1.43l3.45-2.46c.46-.33,1.1-.22,1.43.24s.22,1.1-.24,1.43l-3.45,2.46c-.22.16-.49.21-.74.18Z"/>
            <path class="cls-2" d="M88.49,335.77c-.27-.04-.52-.18-.69-.42l-2.46-3.45c-.33-.46-.22-1.1.24-1.43.46-.33,1.1-.22,1.43.24l2.46,3.45c.33.46.22,1.1-.24,1.43-.22.16-.49.21-.74.18Z"/>
            <path class="cls-2" d="M85.53,335.33c-.27-.04-.52-.18-.69-.42-.33-.46-.22-1.1.24-1.43l3.45-2.46c.46-.33,1.1-.22,1.43.24.33.46.22,1.1-.24,1.43l-3.45,2.46c-.22.16-.49.21-.74.18Z"/>
            <path class="cls-2" d="M104.87,372.45c-.26-.04-.51-.18-.68-.41l-2.96-4c-.34-.45-.24-1.1.21-1.43.45-.34,1.1-.24,1.43.21l2.96,4c.34.45.24,1.1-.21,1.43-.22.17-.49.23-.75.19Z"/>
            <path class="cls-2" d="M98.26,373.15c-.56-.08-.95-.6-.87-1.16l.45-3.21c.08-.56.6-.95,1.16-.87s.95.6.87,1.16l-.45,3.21c-.08.56-.6.95-1.16.87Z"/>
            <path class="cls-2" d="M107.54,366.34l-3.21-.45c-.56-.08-.95-.6-.87-1.16s.6-.95,1.16-.87l3.21.45c.56.08.95.6.87,1.16s-.6.95-1.16.87Z"/>
            <path class="cls-2" d="M88.94,351.18c-.26-.04-.51-.18-.68-.41l-2.96-4c-.34-.45-.24-1.1.21-1.43.46-.34,1.1-.24,1.43.21l2.96,4c.34.45.24,1.1-.21,1.43-.22.17-.49.23-.75.19Z"/>
            <path class="cls-2" d="M92.14,349.69c-.56-.08-.95-.6-.87-1.16l.45-3.21c.08-.56.6-.95,1.16-.87s.95.6.87,1.16l-.45,3.21c-.08.56-.6.95-1.16.87Z"/>
            <path class="cls-2" d="M86.53,353.74l-3.21-.45c-.56-.08-.95-.6-.87-1.16s.6-.95,1.16-.87l3.21.45c.56.08.95.6.87,1.16s-.6.95-1.16.87Z"/>
            <path class="cls-2" d="M95,352.75c4.38-.09,8.68,1.52,11.89,4.5.97.9,2.42-.55,1.45-1.45-3.6-3.34-8.42-5.21-13.34-5.1-1.32.03-1.32,2.08,0,2.05h0Z"/>
            <path class="cls-2" d="M87.61,358.32c4.38-.09,8.68,1.52,11.89,4.5.97.9,2.42-.55,1.45-1.45-3.6-3.34-8.42-5.21-13.34-5.1-1.32.03-1.32,2.08,0,2.05h0Z"/>
            <path class="cls-2" d="M92.19,359.19c.87,2.89,1.23,5.97.3,8.9-.4,1.26,1.58,1.8,1.98.54,1.04-3.25.68-6.76-.3-9.99-.38-1.26-2.36-.72-1.98.54h0Z"/>
          </g>
          <g>
            <polygon class="cls-3" points="156.37 376.07 178.97 359.11 178.97 351.89 183.05 348.85 187.33 348.23 192.21 350.32 193.26 356.28 197.06 357.85 199.46 361.04 199.99 365.16 197.79 369.36 192.21 370.5 186.91 368.94 164 386.44 164.21 392.79 160.5 396.19 156.37 397.5 151.66 394.26 150.4 389.13 147.48 387.87 143.81 383.81 143.81 378.36 147.16 374.74 151.66 374.28 156.37 376.07"/>
            <path class="cls-2" d="M186.77,348.91c.14.02.27.04.41.07,2.78.57,5.07,3.49,4.99,6.35-.01.49-.08.97-.2,1.42-.06.23.1.46.33.49.02,0,.05,0,.07,0,.38-.02.77,0,1.16.05.19.03.38.06.57.11,3.01.71,5.07,3.58,4.81,6.69-.31,3.65-3.58,6.25-7.13,5.75-1.58-.22-2.95-1.02-3.91-2.16-.1-.12-.23-.19-.37-.21s-.3.01-.42.11l-24.27,18.3c-.24.18-.29.51-.13.76.74,1.2,1.08,2.65.87,4.16-.48,3.41-3.6,5.79-6.97,5.32-.13-.02-.27-.04-.4-.07-2.9-.6-4.99-3.26-4.9-6.25.02-.52.09-1.03.22-1.5.05-.18-.07-.36-.25-.39-.02,0-.04,0-.06,0-.41.03-.83.01-1.25-.04-3.52-.49-5.92-3.89-5.17-7.46.63-3.03,3.44-5.15,6.49-4.93.14.01.27.02.41.04,1.49.21,2.78.94,3.72,1.98.1.11.22.17.36.19.15.02.3-.01.42-.11l24.27-18.31c.24-.18.29-.51.14-.76-.74-1.21-1.08-2.68-.87-4.21.48-3.47,3.66-5.89,7.09-5.41M187.05,346.88h0c-2.2-.31-4.4.27-6.17,1.62-1.77,1.35-2.92,3.31-3.22,5.53-.21,1.48-.01,2.99.55,4.36l-22.31,16.81c-1.14-.91-2.51-1.5-3.96-1.71-.18-.02-.36-.04-.54-.06-4.08-.3-7.8,2.52-8.64,6.55-.47,2.26,0,4.63,1.33,6.5,1.22,1.74,3.08,2.94,5.14,3.34-.04,1.9.59,3.76,1.77,5.27,1.2,1.53,2.89,2.58,4.77,2.97.18.04.36.07.53.09,4.49.63,8.65-2.54,9.29-7.07.21-1.47.01-2.97-.55-4.32l22.26-16.77c1.19,1.01,2.64,1.66,4.2,1.88,2.27.32,4.51-.3,6.32-1.73,1.82-1.45,2.93-3.54,3.13-5.87.35-4.11-2.39-7.92-6.38-8.86-.12-.03-.23-.05-.35-.07.09-3.85-2.87-7.59-6.62-8.37-.18-.04-.36-.07-.54-.09h0Z"/>
            <path class="cls-2" d="M193.41,379.67c.58.08.98.61.9,1.19s-.61.98-1.19.9-.98-.61-.9-1.19.61-.98,1.19-.9M193.69,377.66c-1.69-.24-3.25.95-3.49,2.63s.95,3.25,2.63,3.49,3.25-.95,3.49-2.63c.24-1.69-.95-3.25-2.63-3.49h0Z"/>
            <path class="cls-2" d="M176.82,400.67c-.27-.04-.52-.18-.69-.42l-2.46-3.45c-.33-.46-.22-1.1.24-1.43.46-.33,1.1-.22,1.43.24l2.46,3.45c.33.46.22,1.1-.24,1.43-.22.16-.49.21-.74.18Z"/>
            <path class="cls-2" d="M173.86,400.23c-.27-.04-.52-.18-.69-.42-.33-.46-.22-1.1.24-1.43l3.45-2.46c.46-.33,1.1-.22,1.43.24s.22,1.1-.24,1.43l-3.45,2.46c-.22.16-.49.21-.74.18Z"/>
            <path class="cls-2" d="M163.93,349.74c-.27-.04-.52-.18-.69-.42l-2.46-3.45c-.33-.46-.22-1.1.24-1.43.46-.33,1.1-.22,1.43.24l2.46,3.45c.33.46.22,1.1-.24,1.43-.22.16-.49.21-.74.18Z"/>
            <path class="cls-2" d="M160.96,349.31c-.27-.04-.52-.18-.69-.42-.33-.46-.22-1.1.24-1.43l3.45-2.46c.46-.33,1.1-.22,1.43.24.33.46.22,1.1-.24,1.43l-3.45,2.46c-.22.16-.49.21-.74.18Z"/>
            <path class="cls-2" d="M180.3,386.43c-.26-.04-.51-.18-.68-.41l-2.96-4c-.34-.45-.24-1.1.21-1.43.45-.34,1.1-.24,1.43.21l2.96,4c.34.45.24,1.1-.21,1.43-.22.17-.49.23-.75.19Z"/>
            <path class="cls-2" d="M173.69,387.12c-.56-.08-.95-.6-.87-1.16l.45-3.21c.08-.56.6-.95,1.16-.87s.95.6.87,1.16l-.45,3.21c-.08.56-.6.95-1.16.87Z"/>
            <path class="cls-2" d="M182.97,380.31l-3.21-.45c-.56-.08-.95-.6-.87-1.16s.6-.95,1.16-.87l3.21.45c.56.08.95.6.87,1.16s-.6.95-1.16.87Z"/>
            <path class="cls-2" d="M164.38,365.15c-.26-.04-.51-.18-.68-.41l-2.96-4c-.34-.45-.24-1.1.21-1.43.46-.34,1.1-.24,1.43.21l2.96,4c.34.45.24,1.1-.21,1.43-.22.17-.49.23-.75.19Z"/>
            <path class="cls-2" d="M167.58,363.66c-.56-.08-.95-.6-.87-1.16l.45-3.21c.08-.56.6-.95,1.16-.87s.95.6.87,1.16l-.45,3.21c-.08.56-.6.95-1.16.87Z"/>
            <path class="cls-2" d="M161.96,367.71l-3.21-.45c-.56-.08-.95-.6-.87-1.16s.6-.95,1.16-.87l3.21.45c.56.08.95.6.87,1.16s-.6.95-1.16.87Z"/>
            <path class="cls-2" d="M170.43,366.72c4.38-.09,8.68,1.52,11.89,4.5.97.9,2.42-.55,1.45-1.45-3.6-3.34-8.42-5.21-13.34-5.1-1.32.03-1.32,2.08,0,2.05h0Z"/>
            <path class="cls-2" d="M163.05,372.29c4.38-.09,8.68,1.52,11.89,4.5.97.9,2.42-.55,1.45-1.45-3.6-3.34-8.42-5.21-13.34-5.1-1.32.03-1.32,2.08,0,2.05h0Z"/>
            <path class="cls-2" d="M167.62,373.17c.87,2.89,1.23,5.97.3,8.9-.4,1.26,1.58,1.8,1.98.54,1.04-3.25.68-6.76-.3-9.99-.38-1.26-2.36-.72-1.98.54h0Z"/>
          </g>
        </g>
      </g>
    </g>
  </g>
</svg>