<?xml version="1.0" encoding="UTF-8"?>
<svg id="_图层_2" data-name="图层 2" xmlns="http://www.w3.org/2000/svg" viewBox="0 0 26 30.53">
  <defs>
    <style>
      .cls-1 {
        fill: #ffa742;
      }

      .cls-2 {
        fill: #d8e3f0;
      }

      .cls-3 {
        fill: #e59250;
      }

      .cls-4 {
        fill: #fcfeff;
      }

      .cls-5 {
        fill: #4b6228;
      }

      .cls-6 {
        fill: #ffc670;
      }
    </style>
  </defs>
  <g id="_图层_4" data-name="图层 4">
    <g>
      <path class="cls-2" d="M24.42,6.27c-.55-.54-1.44-.54-1.99,0l-2.98,2.98,1.99,1.99,2.98-2.98c.54-.55.54-1.44,0-1.99Z"/>
      <path class="cls-4" d="M24.81,5.86c-.69-.69-1.8-.69-2.48,0l-.18.18,2.48,2.48.18-.18c.69-.69.69-1.8,0-2.48Z"/>
      <path class="cls-2" d="M11.42,3.12h2.81v2.25h-2.81v-2.25Z"/>
      <path class="cls-4" d="M9.74.59h6.19v2.53h-6.19V.59Z"/>
      <path class="cls-2" d="M15.36.59h-1.94c.32,0,.59.26.59.59v1.41c0,.32-.26.59-.59.59h1.93c.32,0,.59-.26.59-.59v-1.41c0-.32-.26-.58-.58-.59Z"/>
      <path class="cls-6" d="M.53,17.58c0,6.79,5.51,12.3,12.3,12.3s12.3-5.51,12.3-12.3-5.51-12.3-12.3-12.3S.53,10.79.53,17.58Z"/>
      <path class="cls-1" d="M12.84,21.85c-4.18,0-8.31-.84-12.16-2.47,1.06,6.71,7.35,11.3,14.06,10.24,5.27-.83,9.41-4.97,10.24-10.24-3.84,1.63-7.97,2.47-12.15,2.47Z"/>
      <path class="cls-4" d="M2.99,17.58c0,5.43,4.4,9.84,9.83,9.84,5.43,0,9.84-4.4,9.84-9.83h0c0-5.44-4.4-9.84-9.83-9.85S3,12.14,2.99,17.58c0,0,0,0,0,0Z"/>
      <path class="cls-2" d="M7.56,17.58c0,2.91,2.36,5.27,5.27,5.27,2.91,0,5.27-2.36,5.27-5.27h0c0-2.92-2.36-5.28-5.27-5.28s-5.27,2.36-5.27,5.27Z"/>
      <path class="cls-3" d="M14.22,16.19l-2.78,2.78-4.46-5.85c-.29-.39-.24-.93.1-1.27.34-.35.89-.39,1.28-.1l5.87,4.43Z"/>
      <path class="cls-2" d="M10.3,17.58c0,1.4,1.13,2.53,2.53,2.53s2.53-1.13,2.53-2.53h0c0-1.4-1.13-2.53-2.53-2.53s-2.53,1.13-2.53,2.53Z"/>
      <path class="cls-4" d="M11.58,17.58c0,.69.56,1.25,1.25,1.25s1.25-.56,1.25-1.25h0c0-.69-.56-1.25-1.25-1.25s-1.25.56-1.25,1.25Z"/>
      <path class="cls-5" d="M12.84,11.51c.32,0,.59-.26.59-.59v-1.03c0-.32-.26-.59-.59-.59-.32,0-.59.26-.59.59v1.03c0,.32.26.59.59.59h0ZM8.54,22.7c.23-.23.23-.6,0-.83-.23-.23-.6-.23-.83,0,0,0,0,0,0,0l-.73.73c-.23.23-.23.6,0,.83.23.23.6.23.83,0l.73-.73ZM6.76,17.57c0-.32-.26-.59-.59-.59h-1.03c-.32,0-.59.26-.59.59s.26.59.59.59h1.03c.32,0,.59-.26.59-.59h0ZM12.84,23.66c-.32,0-.59.26-.59.59v1.03c0,.32.26.59.59.59.32,0,.59-.26.59-.59v-1.03c0-.32-.26-.59-.59-.59ZM17.96,21.87c-.23-.23-.6-.23-.83,0-.23.23-.23.6,0,.83l.72.73c.22.23.6.24.83.02,0,0,.01-.01.02-.02.23-.23.23-.6,0-.83l-.74-.73ZM17.85,11.72l-.72.73c-.23.23-.23.6,0,.83.23.23.6.23.83,0l.74-.71c.23-.23.23-.61,0-.84-.23-.23-.61-.23-.84,0h0Z"/>
      <path class="cls-5" d="M24.42,9.09c.22.09.46.03.63-.13l.18-.19c.96-.87,1.03-2.35.16-3.31s-2.35-1.03-3.31-.16c-.06.05-.11.11-.16.16l-.19.18c-.16.17-.2.42-.11.63l-1.03,1.03c-1.69-1.28-3.66-2.12-5.75-2.45v-1.17h.54c.65,0,1.17-.52,1.17-1.17h0v-1.34C16.56.52,16.03,0,15.38,0h-5.08c-.65,0-1.17.52-1.17,1.17v1.41c0,.65.52,1.17,1.17,1.17h.54v1.17C3.81,6.05-.97,12.67.17,19.7c1.13,7.03,7.75,11.81,14.78,10.67,7.03-1.13,11.81-7.75,10.67-14.78-.32-1.96-1.08-3.82-2.23-5.43l1.04-1.07ZM24.42,6.29c.37.37.45.94.2,1.39l-1.61-1.59c.46-.25,1.03-.17,1.39.2h.02ZM22.41,7.14l1.17,1.17-.93.93c-.36-.42-.75-.81-1.17-1.17l.93-.93ZM10.32,2.55v-1.38h5.04v1.36l-5.04.02ZM13.65,3.73v1.02c-.27,0-.54-.03-.82-.03s-.54,0-.82.03v-1.04l1.64.02ZM12.84,29.29c-6.47,0-11.72-5.25-11.72-11.72S6.37,5.86,12.84,5.86s11.72,5.25,11.72,11.72-5.25,11.72-11.72,11.72h0Z"/>
      <path class="cls-5" d="M12.84,7.15c-5.76,0-10.43,4.66-10.43,10.42,0,5.76,4.66,10.43,10.42,10.43,5.76,0,10.43-4.66,10.43-10.42,0,0,0,0,0-.01,0-5.75-4.67-10.41-10.42-10.42ZM12.84,26.83c-5.11,0-9.26-4.14-9.26-9.25,0-5.11,4.14-9.26,9.25-9.26,5.11,0,9.26,4.14,9.26,9.25,0,0,0,0,0,0,0,5.11-4.14,9.25-9.25,9.26h0Z"/>
      <path class="cls-5" d="M15.95,17.57c0-1.68-1.33-3.05-3.01-3.1l-4.2-3.19c-.7-.52-1.68-.37-2.2.32-.41.56-.41,1.32,0,1.87l3.19,4.2c.03,1.72,1.44,3.09,3.16,3.06,1.72-.03,3.09-1.44,3.06-3.16ZM7.48,12.77c-.12-.16-.1-.38.04-.52.13-.14.35-.15.5-.04l3.42,2.59c-.59.3-1.08.78-1.38,1.38l-2.58-3.41ZM10.89,17.57c0-1.07.88-1.94,1.95-1.94,1.07,0,1.94.88,1.94,1.95,0,1.07-.87,1.94-1.94,1.94-1.07,0-1.95-.86-1.95-1.94,0,0,0,0,0-.01ZM18.9,17.57c0,.32.26.59.59.59h1.03c.32,0,.59-.26.59-.59s-.26-.59-.59-.59h-1.03c-.32,0-.59.26-.59.59h0Z"/>
    </g>
  </g>
</svg>