<?xml version="1.0" encoding="UTF-8"?>
<svg id="_图层_2" data-name="图层 2" xmlns="http://www.w3.org/2000/svg" viewBox="0 0 27.58 26.29">
  <defs>
    <style>
      .cls-1 {
        fill: #85af41;
      }

      .cls-2 {
        fill: #4b6228;
      }
    </style>
  </defs>
  <g id="_图层_4" data-name="图层 4">
    <g>
      <path class="cls-1" d="M13.49,18.75c0,3.89,3.15,7.04,7.04,7.04s7.04-3.15,7.04-7.04c0-3.89-3.15-7.05-7.04-7.05-3.89,0-7.05,3.15-7.05,7.04h0s0,0,0,0Z"/>
      <path class="cls-1" d="M4.37,4.25c0,.92.74,1.66,1.66,1.66s1.66-.74,1.66-1.66-.74-1.66-1.66-1.66-1.66.74-1.66,1.66Z"/>
      <path class="cls-2" d="M24.07,26.29h-6.57c-1.07,0-1.94-.86-1.94-1.93v-7.74h-5.16v7.73c0,1.07-.86,1.93-1.93,1.93H1.94c-1.07,0-1.94-.86-1.94-1.93v-12.32c0-.54.23-1.06.64-1.43l3.8-3.46,1.57,1.74-3.67,3.33v11.72h5.71v-7.72c0-1.07.87-1.94,1.94-1.95h6c1.07,0,1.93.87,1.93,1.94v7.72h5.69v-11.71L12.99,2.55l-2.43,2.21-1.57-1.74L11.81.45c.67-.6,1.69-.6,2.36,0l11.18,10.15c.4.37.63.89.63,1.43v12.33c0,1.05-.85,1.91-1.9,1.93Z"/>
    </g>
  </g>
</svg>