<?xml version="1.0" encoding="UTF-8"?>
<svg id="_图层_2" data-name="图层 2" xmlns="http://www.w3.org/2000/svg" viewBox="0 0 19.91 20.47">
  <defs>
    <style>
      .cls-1, .cls-2 {
        fill: #85af41;
      }

      .cls-3 {
        fill: #fff;
      }

      .cls-2 {
        stroke: #e3f297;
        stroke-miterlimit: 10;
        stroke-width: .5px;
      }
    </style>
  </defs>
  <g id="_图层_4" data-name="图层 4">
    <rect class="cls-3" x="4.21" y="5.95" width="15.7" height="14.53" rx="1.2" ry="1.2"/>
    <g>
      <path class="cls-2" d="M15.24,1.94h-1.39v-.68c0-.56-.45-1.02-1.02-1.02s-1.02.45-1.02,1.02v.68h-4.51v-.68c0-.56-.45-1.02-1.02-1.02s-1.02.45-1.02,1.02h0v.68h-1.34c-2.04,0-3.69,1.66-3.69,3.69v8.92c0,2.04,1.65,3.69,3.69,3.69h11.3c2.04,0,3.69-1.66,3.69-3.69V5.64c0-2.04-1.65-3.69-3.69-3.69ZM16.91,14.56c0,.92-.74,1.66-1.66,1.66H3.94c-.92,0-1.66-.75-1.66-1.66V5.64c0-.92.74-1.66,1.66-1.66h1.34v1.18c0,.56.45,1.02,1.02,1.02s1.02-.45,1.02-1.02v-1.18h4.51v1.18c0,.56.46,1.02,1.02,1.01.56,0,1.01-.45,1.01-1.01v-1.18h1.39c.92,0,1.66.75,1.66,1.66v8.92Z"/>
      <path class="cls-1" d="M12.21,8.35l-3.11,3.4-1.69-1.73c-.39-.4-1.04-.41-1.44-.01s-.41,1.04-.01,1.44h0l2.44,2.49c.19.19.45.3.73.3h.02c.28,0,.54-.12.73-.33l3.84-4.19c.38-.41.35-1.06-.06-1.44-.41-.38-1.06-.35-1.44.06h0Z"/>
    </g>
  </g>
</svg>