<?xml version="1.0" encoding="UTF-8"?>
<svg id="_图层_2" data-name="图层 2" xmlns="http://www.w3.org/2000/svg" viewBox="0 0 19.31 18.41">
  <defs>
    <style>
      .cls-1 {
        fill: #85af41;
      }

      .cls-2 {
        fill: #fff;
      }
    </style>
  </defs>
  <g id="_图层_4" data-name="图层 4">
    <g>
      <path class="cls-2" d="M9.45,13.13c0,2.72,2.21,4.93,4.93,4.93s4.93-2.21,4.93-4.93c0-2.72-2.21-4.93-4.93-4.93-2.72,0-4.93,2.21-4.93,4.93h0s0,0,0,0Z"/>
      <path class="cls-2" d="M3.06,2.98c0,.64.52,1.16,1.16,1.16s1.16-.52,1.16-1.16-.52-1.16-1.16-1.16-1.16.52-1.16,1.16Z"/>
      <path class="cls-1" d="M16.85,18.41h-4.6c-.75,0-1.36-.6-1.36-1.35v-5.42h-3.61v5.41c0,.75-.61,1.35-1.35,1.35H1.36c-.75,0-1.36-.6-1.36-1.35v-8.63c0-.38.16-.74.45-1l2.66-2.42,1.1,1.22-2.57,2.33v8.2h4v-5.41c0-.75.61-1.36,1.36-1.36h4.2c.75,0,1.35.61,1.35,1.36v5.41h3.99v-8.2L9.09,1.78l-1.7,1.55-1.1-1.22,1.97-1.79c.47-.42,1.18-.42,1.65,0l7.82,7.1c.28.26.44.62.44,1v8.63c0,.74-.59,1.34-1.33,1.35Z"/>
    </g>
  </g>
</svg>