<?xml version="1.0" encoding="UTF-8"?>
<svg id="_图层_2" data-name="图层 2" xmlns="http://www.w3.org/2000/svg" viewBox="0 0 43 57.33">
  <defs>
    <style>
      .cls-1 {
        fill: #020202;
      }
    </style>
  </defs>
  <g id="_图层_3" data-name="图层 3">
    <path class="cls-1" d="M39.41,57.33H3.58c-1.98,0-3.58-1.6-3.58-3.58v-30.45c0-1.98,1.6-3.58,3.58-3.58h5.37v-7.17C8.96,5.61,14.57,0,21.5,0s12.54,5.61,12.54,12.54v7.17h5.37c1.98,0,3.58,1.6,3.58,3.58v30.45c0,1.98-1.6,3.58-3.58,3.58ZM19.71,39.08v7.49h3.58v-7.49c2.08-.74,3.58-2.71,3.58-5.05,0-2.97-2.41-5.37-5.37-5.37s-5.37,2.41-5.37,5.37c0,2.34,1.5,4.3,3.58,5.05ZM28.66,12.54c0-3.96-3.21-7.17-7.17-7.17s-7.17,3.21-7.17,7.17v7.17h14.33v-7.17h0Z"/>
  </g>
</svg>