<?xml version="1.0" encoding="UTF-8"?>
<svg id="_图层_2" data-name="图层 2" xmlns="http://www.w3.org/2000/svg" viewBox="0 0 27.77 32.81">
  <defs>
    <style>
      .cls-1 {
        fill: #e3f297;
      }

      .cls-2 {
        fill: #85af41;
      }

      .cls-3 {
        fill: #ffb89a;
      }

      .cls-4 {
        fill: #4b6228;
      }
    </style>
  </defs>
  <g id="_图层_3" data-name="图层 3">
    <rect class="cls-2" x="4.33" y="4.23" width="22.74" height="28.57" rx="1.2" ry="1.2"/>
    <g>
      <path class="cls-1" d="M20.7,23.4h-3.3c-.56,0-1.01.45-1.01,1.01s.45,1.01,1.01,1.01h3.3c.56,0,1.01-.45,1.01-1.01s-.45-1.01-1.01-1.01ZM13.08,23.4H1.64c-.56,0-1.01.45-1.01,1.01s.45,1.01,1.01,1.01h11.44c.56,0,1.01-.45,1.01-1.01s-.45-1.01-1.01-1.01Z"/>
      <path class="cls-3" d="M24.87,2.15l2.2,2.2-1.95,1.95-2.2-2.2,1.95-1.95Z"/>
      <path class="cls-4" d="M21.69,29.91H3.27c-1.81,0-3.27-1.47-3.27-3.27V3.65C0,1.85,1.47.38,3.27.38h14.09c.56,0,1.01.45,1.01,1.01s-.45,1.01-1.01,1.01H3.27c-.69,0-1.26.56-1.26,1.26v22.98c0,.69.56,1.26,1.26,1.26h18.42c.69,0,1.26-.56,1.26-1.26v-13.28c0-.56.45-1.01,1.01-1.01s1.01.45,1.01,1.01v13.28c0,1.8-1.47,3.27-3.27,3.27h0Z"/>
      <path class="cls-4" d="M27.21,1.88l-1.32-1.32c-.81-.81-2.19-.74-3.08.16l-12.01,12.02-2.44,6.68,6.68-2.43,12.02-12.02c.41-.41.66-.93.71-1.48.06-.61-.14-1.19-.55-1.6h0ZM13.92,15.23l-2.19.8.8-2.19,8.9-8.9,1.37,1.4-8.88,8.89h0ZM25.62,3.54l-1.39,1.39-1.37-1.4,1.37-1.37c.1-.1.21-.13.26-.13l1.26,1.26s-.03.15-.13.26h0Z"/>
    </g>
  </g>
</svg>