<?xml version="1.0" encoding="UTF-8"?>
<svg id="_图层_2" data-name="图层 2" xmlns="http://www.w3.org/2000/svg" viewBox="0 0 29.73 28.72">
  <defs>
    <style>
      .cls-1 {
        fill: #85af41;
      }

      .cls-2 {
        fill: #fff;
      }
    </style>
  </defs>
  <g id="_图层_4" data-name="图层 4">
    <g>
      <polygon class="cls-2" points="7.02 16.2 18.53 7.56 18.53 3.89 20.6 2.34 22.78 2.02 25.27 3.09 25.8 6.12 27.74 6.92 28.96 8.55 29.23 10.64 28.11 12.78 25.27 13.36 22.57 12.57 10.91 21.47 11.02 24.71 9.13 26.44 7.02 27.1 4.63 25.45 3.99 22.84 2.5 22.2 .64 20.13 .64 17.36 2.34 15.52 4.63 15.28 7.02 16.2"/>
      <path class="cls-1" d="M22.5,2.37c.07,0,.14.02.21.04,1.41.29,2.58,1.78,2.54,3.23,0,.25-.04.49-.1.72-.03.12.05.23.17.25.01,0,.02,0,.04,0,.19,0,.39,0,.59.03.1.01.19.03.29.05,1.53.36,2.58,1.82,2.45,3.4-.16,1.86-1.82,3.18-3.63,2.93-.81-.11-1.5-.52-1.99-1.1-.05-.06-.12-.1-.19-.11s-.15,0-.22.06l-12.35,9.31c-.12.09-.15.26-.07.39.38.61.55,1.35.44,2.12-.24,1.74-1.83,2.95-3.55,2.71-.07,0-.14-.02-.21-.04-1.48-.31-2.54-1.66-2.5-3.18,0-.27.05-.52.11-.77.03-.09-.04-.18-.13-.2-.01,0-.02,0-.03,0-.21.01-.42,0-.64-.02-1.79-.25-3.01-1.98-2.63-3.8.32-1.54,1.75-2.62,3.3-2.51.07,0,.14.01.21.02.76.11,1.42.48,1.89,1.01.05.05.11.09.18.1.07.01.15,0,.22-.06l12.36-9.32c.12-.09.15-.26.07-.39-.38-.62-.55-1.37-.44-2.14.25-1.76,1.86-3,3.61-2.75M22.64,1.34h0c-1.12-.16-2.24.14-3.14.83-.9.69-1.48,1.69-1.64,2.81-.11.75,0,1.52.28,2.22L6.78,15.75c-.58-.46-1.28-.76-2.02-.87-.09-.01-.18-.02-.28-.03-2.08-.15-3.97,1.28-4.4,3.33-.24,1.15,0,2.36.68,3.31.62.88,1.57,1.49,2.62,1.7-.02.97.3,1.92.9,2.68.61.78,1.47,1.31,2.43,1.51.09.02.18.03.27.05,2.28.32,4.4-1.29,4.73-3.6.1-.75,0-1.51-.28-2.2l11.33-8.54c.6.51,1.34.85,2.14.96,1.16.16,2.3-.15,3.21-.88.93-.74,1.49-1.8,1.6-2.99.18-2.09-1.22-4.03-3.25-4.51-.06-.01-.12-.03-.18-.04.04-1.96-1.46-3.87-3.37-4.26-.09-.02-.18-.03-.27-.05h0Z"/>
      <path class="cls-1" d="M25.88,18.03c.29.04.5.31.46.61s-.31.5-.61.46-.5-.31-.46-.61.31-.5.61-.46M26.02,17c-.86-.12-1.65.48-1.77,1.34s.48,1.65,1.34,1.77,1.65-.48,1.77-1.34-.48-1.65-1.34-1.77h0Z"/>
      <path class="cls-1" d="M17.44,28.72c-.14-.02-.27-.09-.35-.21l-1.25-1.76c-.17-.23-.11-.56.12-.73.23-.17.56-.11.73.12l1.25,1.76c.17.23.11.56-.12.73-.11.08-.25.11-.37.09Z"/>
      <path class="cls-1" d="M15.93,28.49c-.14-.02-.27-.09-.35-.21-.17-.23-.11-.56.12-.73l1.76-1.25c.23-.17.56-.11.73.12s.11.56-.12.73l-1.76,1.25c-.11.08-.25.11-.37.09Z"/>
      <path class="cls-1" d="M10.87,2.79c-.14-.02-.27-.09-.35-.21l-1.25-1.76c-.17-.23-.11-.56.12-.73.23-.17.56-.11.73.12l1.25,1.76c.17.23.11.56-.12.73-.11.08-.25.11-.37.09Z"/>
      <path class="cls-1" d="M9.36,2.57c-.14-.02-.27-.09-.35-.21-.17-.23-.11-.56.12-.73l1.76-1.25c.23-.17.56-.11.73.12.17.23.11.56-.12.73l-1.76,1.25c-.11.08-.25.11-.37.09Z"/>
      <path class="cls-1" d="M19.21,21.47c-.13-.02-.26-.09-.35-.21l-1.51-2.04c-.17-.23-.12-.56.11-.73.23-.17.56-.12.73.11l1.51,2.04c.17.23.12.56-.11.73-.11.08-.25.12-.38.1Z"/>
      <path class="cls-1" d="M15.84,21.82c-.29-.04-.48-.3-.44-.59l.23-1.63c.04-.29.3-.48.59-.44s.48.3.44.59l-.23,1.63c-.04.29-.3.48-.59.44Z"/>
      <path class="cls-1" d="M20.57,18.36l-1.63-.23c-.29-.04-.48-.3-.44-.59s.3-.48.59-.44l1.63.23c.29.04.48.3.44.59s-.3.48-.59.44Z"/>
      <path class="cls-1" d="M11.1,10.64c-.13-.02-.26-.09-.35-.21l-1.51-2.04c-.17-.23-.12-.56.11-.73.23-.17.56-.12.73.11l1.51,2.04c.17.23.12.56-.11.73-.11.08-.25.12-.38.1Z"/>
      <path class="cls-1" d="M12.73,9.88c-.29-.04-.48-.3-.44-.59l.23-1.63c.04-.29.3-.48.59-.44s.48.3.44.59l-.23,1.63c-.04.29-.3.48-.59.44Z"/>
      <path class="cls-1" d="M9.87,11.94l-1.63-.23c-.29-.04-.48-.3-.44-.59s.3-.48.59-.44l1.63.23c.29.04.48.3.44.59s-.3.48-.59.44Z"/>
      <path class="cls-1" d="M14.18,11.44c2.23-.05,4.42.77,6.05,2.29.49.46,1.23-.28.74-.74-1.83-1.7-4.29-2.65-6.79-2.6-.67.01-.67,1.06,0,1.04h0Z"/>
      <path class="cls-1" d="M10.42,14.27c2.23-.05,4.42.77,6.05,2.29.49.46,1.23-.28.74-.74-1.83-1.7-4.29-2.65-6.79-2.6-.67.01-.67,1.06,0,1.04h0Z"/>
      <path class="cls-1" d="M12.75,14.72c.45,1.47.63,3.04.15,4.53-.2.64.8.92,1.01.28.53-1.66.34-3.44-.15-5.08-.19-.64-1.2-.37-1.01.28h0Z"/>
    </g>
  </g>
</svg>