<?xml version="1.0" encoding="UTF-8"?>
<svg id="_图层_2" data-name="图层 2" xmlns="http://www.w3.org/2000/svg" viewBox="0 0 29.57 29.33">
  <defs>
    <style>
      .cls-1 {
        fill: #e3f297;
      }

      .cls-2 {
        fill: #85af41;
      }

      .cls-3 {
        fill: #4b6228;
      }
    </style>
  </defs>
  <g id="_图层_3" data-name="图层 3">
    <circle class="cls-2" cx="16.89" cy="16.65" r="12.68"/>
    <g>
      <path class="cls-3" d="M13.11,3c5.83,0,10.58,4.75,10.58,10.58s-4.75,10.58-10.58,10.58S2.53,19.41,2.53,13.59,7.28,3,13.11,3M13.11.99C6.15.99.52,6.63.52,13.59s5.64,12.59,12.59,12.59,12.59-5.64,12.59-12.59c.02-6.96-5.64-12.59-12.59-12.59h0Z"/>
      <path class="cls-1" d="M12.92,15.84c-.28,0-.55-.11-.76-.33l-4.47-4.98c-.37-.42-.33-1.06.07-1.43.42-.37,1.06-.33,1.43.07l4.49,4.98c.37.42.33,1.06-.07,1.43-.21.18-.44.26-.69.26Z"/>
      <path class="cls-1" d="M13.11,16.35c-.56,0-1-.46-1-1V6.37c0-.56.46-1,1-1s1,.46,1,1v8.98c.02.56-.44,1-1,1Z"/>
      <path class="cls-3" d="M.99,6.24c-.26,0-.51-.11-.7-.3-.39-.39-.39-1.04,0-1.43L4.52.29c.39-.39,1.04-.39,1.43,0,.39.39.39,1.04,0,1.43L1.72,5.94c-.21.21-.48.3-.72.3Z"/>
      <path class="cls-3" d="M25.24,6.24c-.26,0-.51-.11-.7-.3l-4.23-4.23c-.39-.39-.39-1.04,0-1.43s1.04-.39,1.43,0l4.23,4.23c.39.39.39,1.04,0,1.43-.21.21-.46.3-.72.3Z"/>
      <path class="cls-3" d="M3.13,27.69c-.19,0-.41-.05-.58-.19-.46-.32-.56-.95-.23-1.41l1.25-1.76c.32-.46.95-.56,1.41-.23.46.32.56.95.23,1.41l-1.25,1.76c-.21.26-.51.42-.83.42Z"/>
      <path class="cls-3" d="M23.11,27.69c-.32,0-.62-.14-.83-.42l-1.25-1.76c-.32-.46-.21-1.07.23-1.41.46-.32,1.07-.21,1.41.23l1.25,1.76c.32.46.21,1.07-.23,1.41-.18.12-.37.19-.58.19Z"/>
    </g>
  </g>
</svg>