<?xml version="1.0" encoding="UTF-8"?>
<svg id="_图层_2" data-name="图层 2" xmlns="http://www.w3.org/2000/svg" viewBox="0 0 21.12 17.12">
  <defs>
    <style>
      .cls-1 {
        fill: #85af41;
      }

      .cls-2 {
        fill: #fff;
      }
    </style>
  </defs>
  <g id="_图层_4" data-name="图层 4">
    <g>
      <path class="cls-2" d="M11.79,9.41h-4.99c-.25,0-.5.07-.71.2l-2.73,2.69c-.18.17-.48.05-.48-.2v-2.26c0-.24-.19-.43-.43-.43h-1.41c-.58,0-1.05-.47-1.05-1.05V1.05C0,.47.47,0,1.05,0h10.74c.58,0,1.05.47,1.05,1.05v7.31c0,.58-.47,1.05-1.05,1.05Z"/>
      <path class="cls-1" d="M17.16,17.12c-.28,0-.55-.11-.76-.31l-2.63-2.6c-.07-.03-.14-.05-.22-.05h-4.96c-1.02,0-1.85-.83-1.85-1.85v-7.27c0-1.02.83-1.85,1.85-1.85h10.68c1.02,0,1.85.83,1.85,1.85v7.27c0,1.02-.83,1.85-1.85,1.85h-1.03v1.87c0,.44-.26.83-.67,1-.14.06-.28.09-.42.09h0ZM8.6,4.81c-.13,0-.24.11-.24.24v7.27c0,.13.11.24.24.24h4.96c.4,0,.79.11,1.13.33l.07.05,1.88,1.85v-.99c0-.68.55-1.23,1.23-1.23h1.4c.13,0,.24-.11.24-.24v-7.27c0-.13-.11-.24-.24-.24h-10.68Z"/>
    </g>
  </g>
</svg>