<?xml version="1.0" encoding="UTF-8"?>
<svg id="_图层_2" data-name="图层 2" xmlns="http://www.w3.org/2000/svg" viewBox="0 0 16.86 17.35">
  <defs>
    <style>
      .cls-1 {
        fill: #85af41;
      }
    </style>
  </defs>
  <g id="_图层_4" data-name="图层 4">
    <g>
      <path class="cls-1" d="M4.85,6.02c-.46,0-.84.38-.84.84v1.27c0,.46.38.84.84.84s.84-.38.84-.84v-1.27c0-.47-.38-.84-.84-.84ZM8.22,6.02c-.46,0-.84.38-.84.84v1.27c0,.46.38.84.84.84s.84-.38.84-.84v-1.27c0-.47-.38-.84-.84-.84Z"/>
      <path class="cls-1" d="M15.56,8.15c.43,4.02-2.56,7.63-6.64,7.92-3.71.25-7.05-2.42-7.57-6.1C.75,5.91,3.64,2.22,7.66,1.79c1.23-.13,2.48.05,3.62.55.19.09.4.06.59-.04.63-.4,1.34-.69,2.12-.86-.21.59-.43,1.17-.63,1.76-.04.12.1.17.2.16l.73-.08c.24-.03.44-.19.53-.41l.74-2.03c.16-.44-.19-.89-.66-.84-1.26.14-2.39.48-3.4,1.05-1.27-.5-2.63-.67-3.98-.53C2.77,1.04-.64,5.43.1,10.21c.66,4.28,4.52,7.39,8.84,7.12,4.83-.29,8.39-4.56,7.88-9.32-.12-1.14-.48-2.24-1.04-3.23-.13-.22-.37-.34-.62-.32-.45.05-.71.54-.48.93.48.85.78,1.79.88,2.75Z"/>
    </g>
  </g>
</svg>